<?xml version="1.0" standalone="no"?>
<!DOCTYPE svg PUBLIC "-//W3C//DTD SVG 1.1//EN" "http://www.w3.org/Graphics/SVG/1.1/DTD/svg11.dtd" >
<!--
2013-9-30: Created.
-->
<svg>
<metadata>
Created by iconfont
</metadata>
<defs>

<font id="iconfont" horiz-adv-x="1024" >
  <font-face
    font-family="iconfont"
    font-weight="500"
    font-stretch="normal"
    units-per-em="1024"
    ascent="896"
    descent="-128"
  />
    <missing-glyph />
    
    <glyph glyph-name="anquanfanghu" unicode="&#59061;" d="M512 861.86666667c0 0-47.37706667-119.3984-350.34453333-119.3984l0-489.472C161.65546667 59.52853332999996 512-93.86666666999997 512-93.86666666999997s350.34453333 153.3952 350.34453333 346.86293334l0 489.472C558.2848 742.46826667 512 861.86666667 512 861.86666667zM510.5664 402.50026667L205.6192 402.50026667 205.6192 697.61706667c238.86506667 0 296.00426667 84.7872 305.01546667 101.51253333L510.63466667 402.50026667zM818.3808 269.38026666999997c0-169.09653333-305.90293333-303.17226667-306.3808-303.37706667L512 402.50026667l306.3808 0L818.3808 269.38026666999997z"  horiz-adv-x="1024" />

    
    <glyph glyph-name="baocun" unicode="&#58895;" d="M196.445424-103.72657100000004L820.216097-103.72657100000004 820.780595 231.02094799999998 196.445424 231.02094799999998ZM851.828004 713.6670340000001C731.589857 838.985667 715.219405 856.485116 701.671444 856.485116l-87.497244 0 0-287.894157c0-17.499449-14.112459-32.176406-32.176406-32.176406l-417.728776 0c-17.499449 0-32.176406 14.112459-32.176406 32.176406L132.092613 856.485116l-52.498346 0c-26.531422 0-47.982359-21.450937-47.982359-47.982359l0-864.246968c0-26.531422 21.450937-47.982359 47.982359-47.982359l52.498346 0 0 370.875413c0 15.805954 14.112459 28.224917 32.176406 28.224917l688.687982 0c17.499449 0 32.176406-12.418964 32.176406-28.224917l0-370.875413 59.272326 0c26.531422 0 47.982359 21.450937 47.982359 47.982359L992.388093 565.768467C992.388093 578.751929 977.711136 587.783903 851.828004 713.6670340000001zM549.821389 856.485116L196.445424 856.485116l0-256.282249 353.375965 0L549.821389 856.485116zM331.925028 657.781698c0-5.080485-3.951488-9.596472-9.596472-9.596472l-45.159868 0c-5.080485 0-9.596472 3.951488-9.596472 9.596472l0 141.124587c0 5.080485 3.951488 9.596472 9.596472 9.596472l45.159868 0c5.080485 0 9.596472-3.951488 9.596472-9.596472L331.925028 657.781698z"  horiz-adv-x="1024" />

    
    <glyph glyph-name="ziyuan" unicode="&#58959;" d="M857.87335063 862.70131406c-77.76974062 11.01164437-51.61708406-51.61708406-51.61708501-51.61708406l57.12290719-78.45796875c82.58733469-99.79302938-30.97025062-76.39328531-30.97025062-76.39328438-72.26391844-34.41138938 0-77.76974062 0-77.76974062h103.23416906v-465.93021563c-46.11126188-65.38164-77.76974062 0-77.76974062 0V422.923755a99.79302938 99.79302938 0 0 1-77.76974063 103.23416906H702.33386938a32.34670594 32.34670594 0 0 0-26.15265657 26.15265563V784.93157344c0 38.54075625-17.20569469 48.17594531-50.92885594 50.24062875S217.82150375 835.17220219 159.32214125 835.17220219a51.61708406 51.61708406 0 0 1-50.92885594-51.61708406v-776.32094907c-153.47479781-52.99354031-26.15265563-103.23416906-26.15265656-103.23416906h646.93412438c101.16948563 68.82277875-51.61708406 103.23416906-51.61708407 103.23416906v412.93667531l4.12936688 4.12936594a68.82277875 68.82277875 0 0 0 99.10480125-4.12936594v-335.16693468a114.93404156 114.93404156 0 0 1 51.617085-77.76974063h103.23416906a185.82150375 185.82150375 0 0 1 77.76973969 77.76974063v619.4050125zM603.91729531 539.92248a32.34670594 32.34670594 0 0 0-32.34670687-32.34670688H211.62745344a32.34670594 32.34670594 0 0 0-32.34670594 32.34670688V725.05575562a32.34670594 32.34670594 0 0 0 32.34670594 32.34670594h359.943135a32.34670594 32.34670594 0 0 0 32.34670687-32.34670594z"  horiz-adv-x="1048" />

    
    <glyph glyph-name="yunshugongsi" unicode="&#58889;" d="M848 550.4c-9.6 16-25.6 25.6-41.6 25.6H640V707.2c0 32-25.6 60.8-57.6 60.8H89.6C57.6 768 32 742.4 32 707.2v-521.6c0-32 25.6-60.8 57.6-60.8H96c6.4 80 67.2 140.8 144 140.8s134.4-60.8 144-140.8h224c3.2 28.8 12.8 54.4 32 73.6 25.6 32 67.2 54.4 112 54.4 73.6 0 134.4-57.6 144-128h44.8c28.8 0 51.2 25.6 51.2 60.8V352l-144 198.4z m60.8-198.4h-214.4c-3.2 0-9.6 3.2-9.6 9.6V502.4c0 6.4 3.2 9.6 9.6 9.6h121.6c3.2 0 6.4 0 6.4-3.2l92.8-140.8c3.2-6.4 0-16-6.4-16zM240 112m-112 0a112 112 0 1 1 224 0 112 112 0 1 1-224 0ZM752 112m-112 0a112 112 0 1 1 224 0 112 112 0 1 1-224 0Z"  horiz-adv-x="1024" />

    
    <glyph glyph-name="ic_ranliaojiazhu" unicode="&#58942;" d="M699.2 298.79999999999995c-130.56 0-237.84 86.88-237.84 192.48-2.16 8.64-2.64 73.92 77.04 210.72l-61.44 55.44v55.2h13.2c15.12 0 28.32 12 28.32 25.68C518.72 852 507.44 864 490.4 864H244.4c-15.12 0-28.32-12-28.32-25.68 0-13.68 13.2-25.68 28.32-25.68h9.36v-48h-88.8c-28.32 0-51.12-20.64-51.12-46.32v-768c0-25.68 22.8-46.32 51.12-46.32l590.64 6.72c28.32 0 51.12 20.64 51.12 46.32V319.67999999999995c-33.36-13.44-70.56-20.88-107.52-20.88zM909.44 517.44c-11.28 124.8-152.16 297.36-156.48 304.8L723.44 857.04l-27.12-36.72c-158.88-203.76-158.88-295.44-156.48-304.8 0-82.56 84-150.48 186-150.48 52.08 0 104.4 18.24 138.48 49.68 33.84 29.04 49.68 66 45.12 102.72z m-86.4 27.12h-73.68v-73.68c-0.24-13.44-11.28-24.24-24.72-24.24s-24.48 10.8-24.72 24.24v73.44h-73.2c-13.68 0-24.72 11.04-24.72 24.72 0 13.68 11.04 24.72 24.72 24.72h73.2V666.72c0 13.68 11.04 24.72 24.72 24.72 13.68 0 24.72-11.04 24.72-24.72v-72.48h73.68c13.44-0.24 24.24-11.28 24.24-24.72 0-13.68-10.8-24.72-24.24-24.96z"  horiz-adv-x="1024" />

    
    <glyph glyph-name="gaodu" unicode="&#58975;" d="M819.198-14.218 204.799-14.218c-50.267 0-91.022 40.75-91.022 91.02L113.777 691.178c0 50.29 40.755 91.045 91.022 91.045l614.398 0c50.27 0 91.02-40.755 91.02-91.045l0-614.376C910.218 26.532 869.468-14.218 819.198-14.218zM841.953 668.446c0 25.122-20.385 45.51-45.51 45.51L227.554 713.956c-25.122 0-45.51-20.387-45.51-45.51l0-568.889c0-25.125 20.387-45.535 45.51-45.535l568.889 0c25.125 0 45.51 20.39 45.51 45.535L841.953 668.446zM603.268 495.048l-57.14 57.115 0-335.802 55.505 55.5c13.335 13.31 34.93 13.335 48.265 0 13.33-13.335 13.33-34.95 0-48.29l-105.77-105.765c-1.615-3.415-3.525-6.78-6.37-9.625-7.1-7.08-16.475-10.1-25.76-9.67-9.262-0.46-18.66 2.59-25.76 9.69-2.842 2.85-4.8 6.15-6.347 9.58l-105.79 105.79c-13.335 13.34-13.335 34.955 0 48.29 13.332 13.31 34.927 13.335 48.262 0l55.502-55.5L477.865 552.163l-57.117-57.115c-13.335-13.357-34.952-13.335-48.287 0s-13.335 34.93 0 48.265l115.395 115.37c13.332 13.335 34.927 13.357 48.262 0l115.395-115.37c13.335-13.335 13.335-34.952 0-48.265C638.198 481.714 616.583 481.714 603.268 495.048z"  horiz-adv-x="1024" />

    
    <glyph glyph-name="shijian" unicode="&#58918;" d="M506.592-55.68c-242.624 0-440 197.408-440 440 0 242.656 197.376 440 440 440s440-197.344 440-440c0-242.592-197.376-440-440-440m0 944C228.672 888.32 2.592 662.304 2.592 384.32c0-277.888 226.08-504 504-504 277.92 0 504 226.112 504 504 0 277.952-226.08 504-504 504M534.144 406.336V694.784c0.032 0.32 0.224 0.576 0.224 0.896a32.224 32.224 0 0 1-64.448 2.56c0-0.512 0.224-0.896 0.224-1.376v-316c-0.544-2.56-1.376-5.056-1.248-7.776 0.64-16.288 13.376-28.736 29.152-30.272 0.992-0.128 1.824-0.64 2.88-0.704 0.224 0 0.416 0.128 0.672 0.128 0.256 0 0.448-0.128 0.704-0.128 0.32 0.032 0.576 0.224 0.896 0.224H823.68c0.48 0 0.864-0.224 1.344-0.224a32.256 32.256 0 0 1-2.528 64.448c-0.32 0-0.608-0.192-0.928-0.224h-287.36z"  horiz-adv-x="1024" />

    
    <glyph glyph-name="building" unicode="&#58955;" d="M928 601H752.8L529 824.9c-9.40003 9.40003-24.5 9.40003-33.9 0L271.2 601H96c-17.7 0-32-14.3-32-32s14.3-32 32-32h832c17.7 0 32 14.3 32 32s-14.3 32-32 32Zm-566.3 0L512 751.3 662.3 601H361.7ZM928 0H96c-17.7 0-32-14.3-32-32s14.3-32 32-32h832c17.7 0 32 14.3 32 32s-14.3 32-32 32ZM154.5 128c-17.7 0-32-14.3-32-32s14.3-32 32-32h84c17.7 0 32 14.3 32 32s-14.3 32-32 32h-9V409h10c17.7 0 32 14.3 32 32s-14.3 32-32 32h-84c-17.7 0-32-14.3-32-32s14.3-32 32-32h10v-281h-11ZM365.5 127c-17.7 0-32-14.3-32-32s14.3-32 32-32h84c17.7 0 32 14.3 32 32s-14.3 32-32 32h-9V408h10c17.7 0 32 14.3 32 32s-14.3 32-32 32h-84c-17.7 0-32-14.3-32-32s14.3-32 32-32h10v-281h-11ZM575.499 128c-17.7 0-32-14.3-32-32s14.3-32 32-32h84c17.7 0 32 14.3 32 32s-14.3 32-32 32h-9V409h10c17.7 0 32 14.3 32 32s-14.3 32-32 32h-84c-17.7 0-32-14.3-32-32s14.3-32 32-32h10v-281h-11ZM784.5 127c-17.7 0-32-14.3-32-32s14.3-32 32-32h84c17.7 0 32 14.3 32 32s-14.3 32-32 32h-9V408h10c17.7 0 32 14.3 32 32s-14.3 32-32 32h-84c-17.7 0-32-14.3-32-32s14.3-32 32-32h10v-281h-11Z"  horiz-adv-x="1024" />

    
    <glyph glyph-name="area" unicode="&#58972;" d="M602.112 518.656L375.296 291.84000000000003c-12.288-12.288-12.288-32.768 0-45.056 6.144-6.144 14.336-9.216 22.528-9.216 8.192 0 16.384 3.072 22.528 9.216l226.816 226.816c12.288 12.288 12.288 32.768 0 45.056-12.288 12.288-32.768 12.288-45.056 0zM898.56 611.328c15.36 0 27.648 12.288 27.648 27.136V769.024c0 15.36-12.288 27.648-27.648 27.648H768c-15.36 0-27.648-12.288-27.648-27.648v-29.696H286.208v29.696c0 15.36-12.288 27.648-27.648 27.648H128c-15.36 0-27.648-12.288-27.648-27.648v-130.048c0-15.36 12.288-27.648 27.648-27.648h31.744v-452.096H128c-15.36 0-27.648-12.288-27.648-27.648v-130.56c0-15.36 12.288-27.648 27.648-27.648h130.56c14.848 0 27.136 12.288 27.648 27.648v33.28h454.144v-33.28c0-15.36 12.288-27.648 27.648-27.648h130.56c15.36 0 27.648 12.288 27.648 27.648v130.56c0 15.36-12.288 27.648-27.648 27.648H865.28V611.328h33.28z m-102.912 130.56h75.264v-75.264h-75.264V741.888z m-640 0h75.264v-75.264H155.648V741.888z m75.264-713.216H155.648v75.264h75.264v-75.264z m640 0h-75.264v75.264h75.264v-75.264z m-69.632 130.56H768c-15.36 0-27.648-12.288-27.648-27.648v-33.28H286.208v33.28c0 15.36-12.288 27.648-27.648 27.648h-34.816V611.328h34.816c14.848 0 27.136 12.288 27.648 27.136v36.864h454.144v-36.352c0-15.36 12.288-27.648 27.648-27.648h33.28v-452.096z"  horiz-adv-x="1024" />

    
    <glyph glyph-name="cup-full" unicode="&#59527;" d="M1020 896H34.7c-9.6 0-18.2-3.9-24.5-10.1C3.9 879.6 0 870.9 0 861.3c0-15.6 11.2-29 26.5-31.5C102.3 817.2 160 751.3 160 672v-672c0-70.7 57.3-128 128-128h576c70.7 0 128 57.3 128 128V828c0 2.2 1.8 4 4 4h24c2.2 0 4 1.8 4 4V892c0 2.2-1.8 4-4 4zM832 4c0-2.2-1.8-4-4-4H580c-2.2 0-4 1.8-4 4v56c0 2.2 1.8 4 4 4h248c2.2 0 4-1.8 4-4v-56z m0 128c0-2.2-1.8-4-4-4H580c-2.2 0-4 1.8-4 4v56c0 2.2 1.8 4 4 4h248c2.2 0 4-1.8 4-4v-56z m0 128c0-2.2-1.8-4-4-4H580c-2.2 0-4 1.8-4 4v56c0 2.2 1.8 4 4 4h248c2.2 0 4-1.8 4-4v-56z m0 128c0-2.2-1.8-4-4-4H580c-2.2 0-4 1.8-4 4v56c0 2.2 1.8 4 4 4h248c2.2 0 4-1.8 4-4v-56z m0 128c0-2.2-1.8-4-4-4H580c-2.2 0-4 1.8-4 4v56c0 2.2 1.8 4 4 4h248c2.2 0 4-1.8 4-4v-56z m0 128c0-2.2-1.8-4-4-4H580c-2.2 0-4 1.8-4 4v56c0 2.2 1.8 4 4 4h248c2.2 0 4-1.8 4-4v-56z"  horiz-adv-x="1024" />

    
    <glyph glyph-name="cup" unicode="&#59528;" d="M828 384H580c-2.2 0-4 1.8-4 4v56c0 2.2 1.8 4 4 4h248c2.2 0 4-1.8 4-4v-56c0-2.2-1.8-4-4-4zM828 256H580c-2.2 0-4 1.8-4 4v56c0 2.2 1.8 4 4 4h248c2.2 0 4-1.8 4-4v-56c0-2.2-1.8-4-4-4zM828 128H580c-2.2 0-4 1.8-4 4v56c0 2.2 1.8 4 4 4h248c2.2 0 4-1.8 4-4v-56c0-2.2-1.8-4-4-4zM828 0H580c-2.2 0-4 1.8-4 4v56c0 2.2 1.8 4 4 4h248c2.2 0 4-1.8 4-4v-56c0-2.2-1.8-4-4-4zM828 640H580c-2.2 0-4 1.8-4 4v56c0 2.2 1.8 4 4 4h248c2.2 0 4-1.8 4-4v-56c0-2.2-1.8-4-4-4zM828 512H580c-2.2 0-4 1.8-4 4v56c0 2.2 1.8 4 4 4h248c2.2 0 4-1.8 4-4v-56c0-2.2-1.8-4-4-4zM34.7 896c-9.6 0-18.2-3.9-24.5-10.1C3.9 879.6 0 870.9 0 861.3c0-15.6 11.2-29 26.5-31.5C102.3 817.2 160 751.3 160 672v-672c0-70.7 57.3-128 128-128h576c70.7 0 128 57.3 128 128V828c0 2.2 1.8 4 4 4h24c2.2 0 4 1.8 4 4V892c0 2.2-1.8 4-4 4H34.7zM928 8c0-39.8-32.2-72-72-72H296c-39.8 0-72 32.2-72 72V672c0 34.4-7.7 66.9-21.5 96-5.2 11-15.6 25.8-25.1 38.3-8 10.5-0.4 25.7 12.8 25.7H924c2.2 0 4-1.8 4-4v-820z"  horiz-adv-x="1024" />

    
    <glyph glyph-name="tijikongjian-xianxing" unicode="&#59357;" d="M895.4 629.2l-0.9 1.7-1.2-0.6L512 831.6l-414.9-216v-464.2l414.9-215 414.9 217V612.6l-31.5 16.6z m-70.6-35.1L510.7 428.4 195.6 594.7l316.2 164.6 313-165.2z m-663.7-53.6L482 371.2V24L161.1 190.3V540.5z m589.7-407l-96.1-50.3L546 26.4V374.7L862.9 542v-349.7l-112.1-58.8z"  horiz-adv-x="1024" />

    
    <glyph glyph-name="shidu" unicode="&#58893;" d="M911.584243 438.859506a33.631534 33.631534 0 0 1-29.091277 17.824713 34.976795 34.976795 0 0 1-29.595749-16.815767l-4.876573-8.576041c-64.23623-111.15222-151.341903-263.334911-151.341903-354.980842a186.318699 186.318699 0 1 1 372.469239 0c0 79.538578-67.263068 201.789204-126.622725 307.896694-11.602879 19.338132-21.860497 37.835476-30.941012 54.651243zM881.988493-44.089323a119.728261 119.728261 0 0 0-118.887472 120.400892c0 63.059126 65.749649 185.982383 117.710369 278.132787l1.513419-2.858681c50.447301-89.964354 117.710369-213.055768 117.710369-275.274106a119.896419 119.896419 0 0 0-118.046685-120.400892zM411.147017 741.038839c-18.833659 33.631534-36.82653 66.085964-52.633351 95.849872l-9.921302 18.329186a33.631534 33.631534 0 0 1-29.091277 16.815767 33.631534 33.631534 0 0 1-29.59575-16.815767L269.053786 820.913733C162.273665 634.931349 0.001514 353.771725 0.001514 193.517465a320.508519 320.508519 0 0 1 319.499573-321.517465 321.012992 321.012992 0 0 1 319.499573 321.685623c0 139.570866-124.941149 364.397671-225.16312 545.167167zM319.501087-60.736932A253.077294 253.077294 0 0 0 67.264582 193.517465c0 137.552974 146.801646 396.347629 250.891243 576.780809 10.762091-19.842605 22.36497-40.525999 33.631535-61.882023l1.177103-2.186049c91.477773-164.794517 216.755237-390.46211 216.755237-512.376421A253.749924 253.749924 0 0 0 319.501087-60.736932zM1070.661399 488.129703c-16.815767 15.470506-23.205758 40.694156-30.100223 69.785434-9.921303 42.207575-22.196812 94.672768-76.848055 127.967987-67.263068 40.862314-131.162983 16.815767-187.66396-3.531312-39.180737-14.293402-76.343582-27.914173-110.479589-19.338132-133.180875 33.631534-124.604834 190.018167-124.268518 196.912632A33.631534 33.631534 0 0 1 510.191885 895.912054a33.631534 33.631534 0 0 1-35.985742-31.277327c-5.381045-75.502794 24.214705-228.694431 174.71582-266.698065 54.483085-13.788929 105.434859 4.876572 150.332957 21.356024 55.828346 20.515236 91.982246 31.949957 129.481406 9.080514C958.500233 610.044014 965.22654 584.315891 975.316 542.780946c8.239726-35.313111 17.656555-75.166479 50.447301-104.762228a33.631534 33.631534 0 0 1 22.364971-8.407884 33.631534 33.631534 0 0 1 25.055492 11.266564 33.631534 33.631534 0 0 1-2.522365 47.252305z"  horiz-adv-x="1081" />

    
    <glyph glyph-name="deployment-unit" unicode="&#59173;" d="M942.057143 176.914286c-48.571429 28.114286-107.771429 20.571429-147.657143-14.628572l-60.571429 35.085715V370.742857c0 17.942857-9.6 34.628571-25.142857 43.542857l-155.428571 89.485715v76.685714c50.514286 17.142857 86.857143 64.914286 86.857143 121.257143 0 70.742857-57.257143 128-128 128s-128-57.257143-128-128c0-56.342857 36.342857-104.114286 86.857143-121.257143v-76.685714l-155.428572-89.485715c-15.542857-8.914286-25.142857-25.6-25.142857-43.542857v-173.257143l-60.571429-35.085714c-39.885714 35.2-99.2 42.742857-147.657142 14.628571-61.142857-35.428571-81.942857-113.6-46.857143-174.742857 35.2-61.142857 113.028571-82.171429 173.942857-46.857143 48.571429 28.114286 71.657143 83.428571 61.257143 135.771429l55.657143 32.342857 160.685714-92.571428c7.771429-4.457143 16.457143-6.742857 25.142857-6.742858s17.371429 2.285714 25.142857 6.742858L697.714286 123.428571l55.657143-32.342857c-10.4-52.228571 12.8-107.657143 61.257142-135.771428 60.914286-35.314286 138.857143-14.4 173.942858 46.857143 35.2 61.257143 14.4 139.428571-46.514286 174.742857z m-769.142857-158.171429a54.4 54.4 0 0 0-74.514286 20.114286c-15.085714 26.171429-6.171429 59.771429 20 74.857143a54.4 54.4 0 0 0 74.514286-20.114286c15.085714-26.171429 6.171429-59.771429-20-74.857143zM523.428571 439.085714zM457.142857 701.714286a54.868571 54.868571 0 0 0 109.714286 0 54.868571 54.868571 0 0 0-109.714286 0z m194.285714-509.942857l-139.428571-80.342858-139.428571 80.342858V352.228571l139.428571 80.342858 139.428571-80.342858v-160.457142z m274.171429-153.028572c-15.085714-26.171429-48.457143-35.2-74.514286-20.114286-26.057143 15.085714-35.085714 48.685714-20 74.857143s48.457143 35.2 74.514286 20.114286c26.171429-15.085714 35.085714-48.571429 20-74.857143z"  horiz-adv-x="1024" />

    
    <glyph glyph-name="shuiwei" unicode="&#58888;" d="M396.02 98.55c0 11.24 2.29 21.92 6.29 31.72-36.85 6.33-75.61-5.22-104.07-35.43-11.96-12.74-27.31-18.99-42.66-18.99-15.61 0-30.95 6.24-42.66 18.99-11.97 12.48-30.95 12.48-42.66 0-11.96-12.74-11.96-33.03 0-45.78 47.08-50.2 123.55-50.2 170.63 0 11.71 12.74 27.05 18.99 42.66 18.99 6.76 0 13.48-1.43 19.95-3.87-4.71 10.51-7.48 22.09-7.48 34.37zM396.02 266.9c0 17.95 5.71 34.5 15.29 48.16-39.36 10.02-82.4-0.95-113.11-33.75v0.01l-0.01-0.01c-23.56-25.17-61.77-25.17-85.34 0-11.78 12.58-30.89 12.58-42.67 0-11.78-12.58-11.79-32.98 0-45.57 47.13-50.33 123.55-50.33 170.69 0v0.01c15.38 16.42 36.91 21.82 56.6 16.76-0.81 4.71-1.45 9.47-1.45 14.39zM424.54 497.97c-42.2 15.57-90.7 5.92-124.4-30.07v0.01l-0.01-0.01c-23.56-25.17-61.77-25.17-85.34 0-11.78 12.58-30.89 12.58-42.67 0-11.78-12.58-11.79-32.98 0-45.57 47.13-50.33 123.55-50.33 170.69 0v0.01c14.61 15.6 34.8 21.26 53.68 17.48 1.26 23.17 11.77 43.69 28.05 58.15zM852.92 94.74c-11.79 12.59-30.89 12.58-42.68 0-23.56-25.17-61.78-25.17-85.34 0-25.71 27.46-60.07 39.58-93.67 36.95v-64.52c18.08 2.79 37.07-3.12 51-18v-0.01c47.13-50.32 123.55-50.33 170.69 0.01 11.79 12.59 11.79 32.99 0 45.57zM852.92 281.32c-11.79 12.59-30.89 12.58-42.68 0-23.56-25.17-61.78-25.17-85.34 0-25.71 27.46-60.07 39.58-93.67 36.95v-64.52c18.08 2.79 37.07-3.12 51.01-18v0.01-0.01c47.13-50.32 123.55-50.33 170.69 0.01 11.78 12.58 11.78 32.98-0.01 45.56zM854.87 467.87c-11.79 12.59-30.89 12.58-42.68 0-23.56-25.17-61.78-25.17-85.34 0l-0.06-0.02 0.05 0.05c-26.21 27.98-61.39 39.94-95.61 36.68v-64.62c18.65 3.55 38.51-2.21 52.94-17.63l0.01 0.01v-0.05c47.13-50.32 123.55-50.33 170.69 0.01 11.78 12.59 11.78 32.99 0 45.57zM574 734.18c-0.01 20.82-16.88 37.68-37.7 37.68-20.81 0-37.69-16.87-37.69-37.68v-93.93h-17.79c-20.82-0.01-37.69-16.88-37.69-37.69 0-20.82 16.87-37.69 37.69-37.69h17.64v-92.43h-17.64c-20.82 0-37.69-16.87-37.69-37.69 0-20.82 16.87-37.69 37.69-37.69h17.64v-92.42h-17.64c-20.82 0-37.69-16.87-37.69-37.69 0-20.82 16.87-37.69 37.69-37.69h17.64v-92.42h-17.64c-20.82 0-37.69-16.87-37.69-37.69 0-20.82 16.88-37.69 37.69-37.69h17.64v-27.25h0.05c0-0.11-0.01-0.22-0.01-0.33 0-20.85 16.9-37.75 37.75-37.75S574 13.03 574 33.88c0 0.11-0.01 0.22-0.01 0.33h0.01V734.18z"  horiz-adv-x="1024" />

    
    <glyph glyph-name="wendu" unicode="&#58987;" d="M793.6 256c-19.2 32-51.2 64-89.6 83.2V768c0 70.4-51.2 128-121.6 128C512 896 460.8 838.4 460.8 768v-435.2c-38.4-12.8-64-44.8-89.6-76.8-25.6-38.4-38.4-83.2-38.4-134.4 0-64 25.6-128 70.4-172.8S518.4-128 582.4-128c64 0 128 25.6 172.8 70.4s70.4 108.8 70.4 172.8c6.4 51.2-6.4 96-32 140.8z m-211.2-339.2c-115.2 0-204.8 96-204.8 204.8 0 76.8 44.8 147.2 115.2 185.6l12.8 6.4V768c0 44.8 38.4 83.2 83.2 83.2 44.8 0 83.2-38.4 83.2-83.2v-460.8l12.8-6.4c70.4-38.4 115.2-108.8 115.2-185.6-6.4-108.8-102.4-198.4-217.6-198.4zM620.8 230.4V633.6c0 19.2-19.2 38.4-38.4 38.4s-38.4-19.2-38.4-38.4v-403.2c-44.8-12.8-70.4-57.6-70.4-102.4 0-57.6 51.2-108.8 108.8-108.8s108.8 51.2 108.8 108.8c0 44.8-25.6 89.6-70.4 102.4zM352 710.4H153.6c-25.6 0-38.4 12.8-38.4 38.4 0 19.2 12.8 38.4 38.4 38.4h204.8c19.2 0 38.4-19.2 38.4-38.4-6.4-25.6-19.2-38.4-44.8-38.4zM352 588.8h-128c-19.2 0-38.4 19.2-38.4 38.4s19.2 38.4 38.4 38.4h128c19.2 0 38.4-19.2 38.4-38.4 0-25.6-12.8-38.4-38.4-38.4zM352 460.8h-38.4c-19.2 0-38.4 19.2-38.4 38.4s19.2 38.4 38.4 38.4h44.8c19.2 0 38.4-19.2 38.4-38.4-6.4-19.2-19.2-38.4-44.8-38.4z"  horiz-adv-x="1024" />

    
    <glyph glyph-name="yewei" unicode="&#59272;" d="M248.832 120.832c13.312-13.312 34.816-13.312 48.128 0l44.373333 44.373333 44.032-44.032c13.312-13.312 34.816-13.312 48.128 0l44.373334 44.032 44.032-44.032c13.312-13.312 34.816-13.312 48.128 0l44.373333 44.032 44.032-44.032c6.826667-6.826667 15.36-10.24 24.234667-10.24s17.408 3.413333 24.234666 9.898667l68.266667 68.266667a33.9968 33.9968 0 1 1-48.128 48.128L682.666667 193.194667l-44.032 44.032a33.9968 33.9968 0 0 1-48.128 0L546.133333 193.194667l-44.032 44.032a33.9968 33.9968 0 0 1-48.128 0L409.6 193.194667l-44.032 44.032a33.9968 33.9968 0 0 1-48.128 0L273.066667 193.194667 229.034667 237.226667a33.9968 33.9968 0 1 1-48.128-48.128l67.925333-68.266667z m0 204.8c13.312-13.312 34.816-13.312 48.128 0l44.373333 44.373333 44.032-44.032c13.312-13.312 34.816-13.312 48.128 0l44.373334 44.032 44.032-44.032c13.312-13.312 34.816-13.312 48.128 0l44.373333 44.032 44.032-44.032c6.826667-6.826667 15.36-10.24 24.234667-10.24s17.408 3.413333 24.234666 9.898667l68.266667 68.266667a33.9968 33.9968 0 1 1-48.128 48.128L682.666667 397.994667l-44.032 44.032a33.9968 33.9968 0 0 1-48.128 0L546.133333 397.994667l-44.032 44.032a33.9968 33.9968 0 0 1-48.128 0L409.6 397.994667l-44.032 44.032a33.9968 33.9968 0 0 1-48.128 0L273.066667 397.994667 229.034667 442.026667a33.9968 33.9968 0 1 1-48.128-48.128l67.925333-68.266667zM989.866667 657.066667V725.333333h-102.4V793.6h-68.266667v-785.066667H136.533333V793.6H68.266667v-853.333333h921.6v68.266666h-102.4v170.666667h68.266666v68.266667h-68.266666v170.666666h102.4v68.266667h-102.4V657.066667h102.4z"  horiz-adv-x="1024" />

    
    <glyph glyph-name="youpinjiance" unicode="&#58886;" d="M708.437 669.184H372.053V800.939c0 51.2 43.862 95.061 87.723 95.061h160.939a90.624 90.624 0 0 0 87.722-95.061z m-277.845 65.877h226.645V808.277a31.403 31.403 0 0 1-29.184 29.184H467.115a34.133 34.133 0 0 1-36.523-36.522z m0 0M679.253-128H174.592a96.768 96.768 0 0 0-95.061 95.061V420.523a117.93 117.93 0 0 0 43.861 95.061L386.56 727.723h307.2l43.861-65.878a221.867 221.867 0 0 0 36.523-117.077v-29.184h-58.368v29.355a147.456 147.456 0 0 1-22.016 80.384l-29.184 43.861H415.915L167.253 471.723a55.125 55.125 0 0 1-29.184-51.2V-32.94a34.133 34.133 0 0 1 36.523-36.522h504.661a34.133 34.133 0 0 1 36.523 36.522V84.14h58.539V-32.94c7.338-51.2-36.523-95.061-95.062-95.061z m0 0M752.299 40.277a196.096 196.096 0 0 0-160.939 307.2L708.437 537.6a54.784 54.784 0 0 0 87.723 0l117.077-190.123a208.555 208.555 0 0 0-22.016-248.661A230.059 230.059 0 0 0 752.3 40.277z m0 460.8L635.392 318.123a143.19 143.19 0 0 1 14.677-175.616 136.533 136.533 0 0 1 190.123 0 142.165 142.165 0 0 1 14.677 175.616z m-512-475.477c-36.523 0-65.878 29.184-65.878 73.216V332.8c0 36.523 29.184 73.216 65.878 73.216s65.877-29.184 65.877-73.216v-241.323a65.536 65.536 0 0 0-65.877-65.877z m0 321.877a7.168 7.168 0 0 1-7.339-7.338v-248.662a7.339 7.339 0 1 1 14.677 0V332.8c0 7.339 0 14.677-7.338 14.677z m204.8 351.062h58.538v-80.384H445.1z m124.416 0h58.538v-80.384h-58.538z m0 0"  horiz-adv-x="1024" />

    
    <glyph glyph-name="fangzi" unicode="&#58901;" d="M876.619 410.822C862.434 670.811 704.656 815.999 513 815.999c-191.651 0-348.586-145.311-363.496-405.176H67.306V-34.87h891.388V410.822h-82.075z m-181.29-384.915H492.741V308.949c0 56.265 45.351 101.873 101.294 101.873s101.294-45.609 101.294-101.873v-283.042z m222.847-20.259H735.847V311.267c0 77.36-63.493 140.073-141.812 140.073-78.321 0-141.812-62.713-141.812-140.073v-305.618h-344.4V370.307h40.518c1.743-0.581 69.462-0.635 162.988-0.48-71.34 0.228-121.065 0.573-122.473 1.041 0.505 240.247 145.125 404.613 324.144 404.613 179.017 0 322.687-142.596 324.139-405.174h81.037v-364.659z"  horiz-adv-x="1024" />

    
    <glyph glyph-name="fangzi1" unicode="&#58912;" d="M357.22666667 209.81333332999998c0.53333333 0 1.17333333 0 1.70666666 0.10666667l177.92 23.14666667c7.25333333 0.96 12.48 7.68 11.52 14.93333333s-7.57333333 12.48-14.93333333 11.52l-177.92-23.14666667c-7.25333333-0.96-12.48-7.68-11.52-14.93333333 0.85333333-6.72 6.61333333-11.62666667 13.22666667-11.62666667zM483.09333333 141.01333333000002l-169.81333333-19.30666666c-7.36-0.85333333-12.58666667-7.46666667-11.73333333-14.72 0.74666667-6.82666667 6.50666667-11.84 13.22666666-11.84 0.53333333 0 0.96 0 1.49333334 0.10666666l169.81333333 19.30666667c7.36 0.85333333 12.58666667 7.46666667 11.73333333 14.72s-7.46666667 12.58666667-14.72 11.73333333zM309.22666667 325.33333332999996c-0.96 7.25333333-7.68 12.37333333-15.04 11.41333334l-51.62666667-7.14666667c-7.25333333-0.96-12.37333333-7.68-11.41333333-15.04 0.96-6.72 6.61333333-11.52 13.22666666-11.52 0.64 0 1.17333333 0 1.81333334 0.10666667l51.62666666 7.14666666c7.36 0.96 12.37333333 7.68 11.41333334 15.04zM365.76 319.78666667000005c0.64 0 1.17333333 0 1.81333333 0.10666666L477.22666667 334.93333333c7.25333333 0.96 12.37333333 7.68 11.41333333 15.04-0.96 7.25333333-7.68 12.37333333-15.04 11.41333334l-109.65333333-15.04c-7.25333333-0.96-12.37333333-7.68-11.41333334-15.04 0.96-6.72 6.61333333-11.52 13.22666667-11.52zM981.22666667 434.02666667c10.88 4.05333333 19.2 13.86666667 20.69333333 26.13333333s-4.16 23.78666667-13.76 30.29333333L660.26666667 714.45333333l-11.62666667 61.33333334c-1.38666667 7.14666667-5.54666667 13.44-11.73333333 17.49333333-6.08 3.94666667-13.65333333 5.22666667-20.69333334 3.52L494.93333333 767.57333333c-7.04-1.70666667-13.01333333-6.18666667-16.74666666-12.37333333-3.62666667-6.18666667-4.69333333-13.65333333-2.77333334-20.58666667l6.18666667-22.4L335.78666667 690.13333333c-8.21333333-1.28-16.42666667-4.16-24-8.74666666-7.57333333-4.69333333-13.76-10.66666667-18.66666667-17.49333334L59.62666667 334.93333333l-31.04-43.73333333c-8.53333333-12.05333333-6.4-29.76 6.29333333-37.22666667 22.08-13.01333333 53.54666667 16.85333333 73.38666667-25.70666666l106.98666666-234.24c3.62666667-7.89333333 9.6-14.72 17.6-19.30666667 8-4.58666667 16.96-6.29333333 25.6-5.44l384.96 39.36 253.97333334 137.81333333c5.86666667 3.2 10.98666667 7.68 14.93333333 13.54666667s6.29333333 12.37333333 7.04 18.98666667l28.58666667 242.56 33.28 12.48z m-379.73333334 304.32L624 619.41333333l-74.77333333 48.10666667-15.04 54.61333333 67.30666666 16.21333334z m-105.6-77.97333334l4.58666667-16.85333333c1.70666667-6.29333333 5.76-11.84 11.30666667-15.36l135.46666666-87.14666667c4.37333333-2.77333333 9.38666667-4.26666667 14.4-4.26666666 5.22666667 0 10.45333333 1.49333333 14.93333334 4.58666666 8.85333333 5.97333333 13.22666667 16.64 11.30666666 27.09333334l-13.65333333 72L890.66666667 493.97333333c6.4-4.37333333 10.24-12.05333333 9.28-20.16-0.96-8.21333333-6.50666667-14.72-13.76-17.49333333l-119.14666667-44.37333333c-7.89333333-2.88-16.53333333-4.05333333-25.38666667-2.88-8.85333333 1.17333333-16.96 4.37333333-23.78666666 9.17333333L394.02666667 644.90666667l101.86666666 15.46666666z m-196.05333333-79.25333333c7.89333333 11.09333333 19.94666667 19.2 34.34666667 21.65333333s28.58666667-1.06666667 39.68-8.85333333l27.84-19.52-120.42666667-19.41333333 18.56 26.13333333z m-67.73333333-495.46666667l21.12 2.34666667c7.36 0.85333333 12.58666667 7.46666667 11.73333333 14.72s-7.46666667 12.58666667-14.72 11.73333333l-29.76-3.41333333-34.88 76.37333333 92.26666667 12.05333334c7.25333333 0.96 12.48 7.68 11.52 14.93333333-0.96 7.25333333-7.57333333 12.48-14.93333334 11.52l-100.37333333-13.01333333-34.56 75.73333333 24.32 3.30666667c7.25333333 0.96 12.37333333 7.68 11.41333333 15.04-0.96 7.25333333-7.68 12.37333333-15.04 11.41333333l-32.21333333-4.37333333-6.93333333 15.25333333 51.30666666 72.21333333 85.65333334 12.8c7.25333333 1.06666667 12.26666667 7.89333333 11.2 15.14666667-1.06666667 7.25333333-7.89333333 12.26666667-15.14666667 11.2l-60.26666667-8.96 66.02666667 93.01333333 173.44 27.94666667 100.37333333-70.29333333-206.93333333-30.93333334c-7.25333333-1.06666667-12.26666667-7.89333333-11.2-15.14666666 0.96-6.61333333 6.72-11.41333333 13.12-11.41333334 0.64 0 1.28 0 2.02666667 0.10666667l234.77333333 35.09333333 81.6-57.17333333-1.92-17.92-85.86666667-11.84c-7.25333333-0.96-12.37333333-7.68-11.41333333-15.04 0.96-6.72 6.61333333-11.52 13.22666667-11.52 0.64 0 1.17333333 0 1.81333333 0.10666667l79.25333333 10.88-9.17333333-85.12-32.64-4.26666667c-7.25333333-0.96-12.48-7.68-11.52-14.93333333 0.85333333-6.72 6.61333333-11.62666667 13.22666667-11.62666667 0.53333333 0 1.17333333 0 1.70666666 0.10666667l26.24 3.41333333-9.49333333-88.53333333-72.64-8.21333334c-7.36-0.85333333-12.58666667-7.46666667-11.73333333-14.72 0.74666667-6.82666667 6.50666667-11.84 13.22666666-11.84 0.53333333 0 0.96 0 1.49333334 0.10666667l66.66666666 7.57333333-7.57333333-70.50666666-349.33333333-35.73333334-28.48 62.4zM888.42666667 372.26666666999995l-74.77333334-31.14666667c-6.82666667-2.88-10.02666667-10.66666667-7.14666666-17.38666667 2.13333333-5.12 8.74666667-9.70666667 17.38666666-7.14666666l60.90666667 25.38666666-8-68.16-113.28-54.29333333c-6.61333333-3.2-9.38666667-11.2-6.29333333-17.81333333 2.24-4.8 7.04-7.57333333 12.05333333-7.57333334 1.92 0 3.94666667 0.42666667 5.76 1.28l98.02666667 47.04-6.08-51.52-200.96-109.22666666 18.98666666 176.96 55.04 22.93333333c6.82666667 2.88 10.02666667 10.66666667 7.14666667 17.38666667-2.88 6.82666667-10.66666667 10.02666667-17.38666667 7.14666666l-41.49333333-17.28c2.02666667 27.62666667 11.94666667 41.70666667 44.8 53.54666667L891.73333333 400.96l-3.30666666-28.69333333z"  horiz-adv-x="1024" />

    
    <glyph glyph-name="house" unicode="&#59885;" d="M959.9-49.60000000000002c-20.4 0.6-36.5 17.2-36.5 37.6l1 525.1h42.7c24.8 0 28.9 12.1 9.6 26.9L516.7 890.7C512.1 894.2 506.1 896 500.1 896c-6.6 0-13.3-2.1-18.3-6.3L46.2 526.5c-18.9-15.8-13.9-29 10.6-29.5l42.8-0.9 1.7-507.9c0.1-20.8-16.8-37.7-37.5-37.7h-0.5c-21 0-38.1-17.2-38.1-38.3v-0.5c0.3-21.5 17.7-38.9 39.1-38.9l896.4-0.8h0.1c20.9 0 37.9 17.1 37.9 38.2v0.5c-0.1 21.5-17.3 39.1-38.8 39.7z m-99.5 562.8l-1.1-561.7v-1.4c0-7.8-6.3-14-14.1-14l-665.7 0.6c-7.7 0-14 6.3-14.1 14l-1.8 545.6-0.1 44.8L500.9 822.3l359.6-274.2-0.1-34.9zM337.4 237.39999999999998L219 238.60000000000002c-2.2 0-4-1.8-4-4v-105.3c0-2.2 1.8-4 4-4l118.4-0.4c2.2 0 4 1.8 4 4V233.39999999999998c-0.1 2.2-1.8 4-4 4z m240.1 1.2H459.1c-2.2 0-4-1.8-4-4v-244.1c0-2.2 1.8-4 4-4l122.4-0.7V234.60000000000002c0 2.2-1.8 4-4 4z m227.6-1.2l-122.5 1.2v-109.3c0-2.2 1.8-4 4-4l118.4-0.5c2.2 0 4 1.8 4 4V233.39999999999998c0.1 2.2-1.7 4-3.9 4z m-467.7 202L219 440.8h-0.1c-2.2 0-4-1.8-4-4v-105.2c0-2.2 1.8-4 4-4l118.4-0.5c2.2 0 4 1.8 4 4V435.4c0 2.2-1.7 4-3.9 4z m240.2 0l-118.4 1.4c-2.2 0-4-1.8-4-4v-105.1c0-2.2 1.8-4 4-4l118.4-0.6c2.2 0 4 1.8 4 4V435.4c-0.1 2.2-1.8 4-4 4z m227.5 0l-118.4 1.4c-2.2 0-4-1.8-4-4v-105.1c0-2.2 1.8-4 4-4l118.4-0.6c2.2 0 4 1.8 4 4V435.4c0 2.2-1.8 4-4 4zM577.6 641.7l-118.4 1.4c-2.2 0-4-1.8-4-4v-105.3c0-2.2 1.8-4 4-4l118.4-0.5c2.2 0 4 1.8 4 4V637.7c-0.1 2.2-1.8 4-4 4z"  horiz-adv-x="1024" />

    
    <glyph glyph-name="gonggao" unicode="&#58897;" d="M913.926875 589.0706250000001c-34.8421875 63.103125-84.7096875 116.0428125-144.1940625 153.0853125-6.0609375 3.8578125-11.4553125 6.4265625-18.0853125 6.4265625-16.7578125 0-30.3909375-14.431875-30.3909375-32.17125 0-12.0403125 6.2578125-22.554375 17.1-28.801875 104.863125-64.951875 170.00625-185.19375 170.00625-313.798125 0-128.484375-65.0803125-248.671875-169.783125-313.621875-8.66625-5.0503125-17.926875-15.391875-17.926875-29.27625 0-17.739375 13.6584375-32.17125 30.44625-32.17125 7.0734375 0 12.658125 3.0553125 17.7853125 6.1921875 59.743125 37.003125 109.81875 89.979375 144.815625 153.1996875 36.0571875 65.1384375 55.115625 139.7165625 55.115625 215.6784375 0 75.785625-18.9796875 150.2221875-54.8896875 215.2565625zM803.2428125 373.81125c0 44.716875-11.233125 88.621875-32.4815625 126.9684375-20.6240625 37.2159375-50.128125 68.38875-85.321875 90.1490625l-0.1078125 0.06375c-1.02375 0.5653125-10.2 5.5209375-17.015625 5.5209375-16.87875 0-30.61125-14.480625-30.61125-32.2790625 0-11.66625 5.8003125-22.4728125 15.1546875-28.213125 54.89625-33.0871875 88.9996875-95.2396875 88.9996875-162.208125 0-68.36625-35.158125-131.180625-91.755-163.9340625l-0.1003125-0.0609375c-9.1434375-5.8640625-14.6015625-16.183125-14.6015625-27.6028125 0-17.8303125 13.7071875-32.33625 30.530625-32.33625l0.163125-0.0009375c0.0009375 0 0.0009375 0 0.0009375 0 7.096875 0 15.1209375 4.1709375 15.459375 4.348125l0.1153125 0.06375c74.98875 44.4196875 121.5721875 128.535 121.5721875 219.52125zM550.36625 820.4559375c-4.9378125 2.5284375-10.4521875 3.864375-15.94125 3.864375-8.255625 0-16.359375-2.9915625-22.8084375-8.4215625l-0.1453125-0.121875c-5.2659375-4.438125-52.95-44.529375-104.8753125-85.1034375-93.8128125-73.363125-122.26125-86.46375-127.8515625-88.575l-119.1515625 0c-0.7828125 0-1.4859375-0.0534375-2.1403125-0.110625l-60.9778125 0c-16.7878125 0-30.4453125-14.41875-30.4453125-32.1440625l0-472.5028125c0-17.7065625 13.6584375-32.113125 30.4453125-32.113125l204.4171875-0.0590625c5.431875-2.2603125 32.210625-15.7809375 115.359375-87.7528125 28.38-24.549375 61.1746875-54.0871875 92.341875-83.173125 0.826875-0.7715625 1.365-1.2721875 1.591875-1.4803125l0-0.0009375c6.669375-6.316875 15.2709375-9.795 24.2221875-9.795 5.105625 0 10.299375 1.1840625 15.0196875 3.4284375 13.4784375 6.4340625 22.5328125 20.5621875 22.5328125 35.150625 0.0028125 1.576875 0.2915625 157.6715625 0.2915625 160.7840625 0 3.1753125-1.3021875 656.8190625-1.3153125 663.4171875-0.0009375 14.8940625-7.8834375 28.194375-20.5715625 34.711875zM510.8646875 127.520625l-0.466875-102.920625c-15.5278125 13.9228125-30.553125 27.12375-44.7271875 39.2896875-113.7815625 97.8215625-142.303125 106.006875-161.761875 106.006875-0.38625 0-0.703125-0.0478125-0.9346875-0.084375-0.06-0.009375-0.1209375-0.020625-0.13875-0.02625-0.0628125 0.0046875-0.12375 0.016875-0.18375 0.02625-0.230625 0.035625-0.5484375 0.084375-0.93375 0.084375l-153.6834375 0c-17.6784375 0-21.495 4.284375-21.495 24.1209375l0 362.6278125c0 13.9209375 1.4878125 20.47875 15.0853125 20.47875l138.451875 0c18.94125 0 47.8396875 8.0896875 172.185 104.7740625 18.9778125 14.75625 38.9784375 30.6403125 58.115625 46.155 0.0496875-59.945625 0.489375-598.156875 0.489375-600.534375z"  horiz-adv-x="1024" />

    
    <glyph glyph-name="tuichu" unicode="&#59522;" d="M737 114h-225V654L287 744h450v-90h90V834H62v-720l450-180v90h315v180h-90v-90zM962 429l-225 135v-90h-180v-90h180v-90l225 135z"  horiz-adv-x="1024" />

    
    <glyph glyph-name="shouqi" unicode="&#59052;" d="M230.26801778 419.46680889H364.08888889a9.10222222 9.10222222 0 0 0 9.10222222-9.10222222v-63.71555556H234.01130667l34.60892444-35.84a9.10222222 9.10222222 0 0 0-0.22414222-12.87054222l-45.83310222-44.25955556-123.29756445 127.67687112a9.10222222 9.10222222 0 0 0 0.22528 12.87054222l44.71125333 43.17866666-0.08874666 0.09102222 75.29699556 72.71424a9.10222222 9.10222222 0 0 0 12.87054222-0.22528l44.25955555-45.83310222-46.27228444-44.68508444zM185.45777778 619.52c-50.27043555 0-91.02222222 40.75178667-91.02222223 91.02222222s40.75178667 91.02222222 91.02222223 91.02222223 91.02222222-40.75178667 91.02222222-91.02222223-40.75178667-91.02222222-91.02222222-91.02222222z m145.63555555 182.04444445h598.47111112v-163.84c0-10.05454222-8.14990222-18.20444445-18.20444445-18.20444445H312.88888889V783.36c0 10.05454222 8.14990222 18.20444445 18.20444444 18.20444445zM112.64 148.48000000000002h816.92444445v-163.84c0-10.05454222-8.14990222-18.20444445-18.20444445-18.20444445H94.43555555V130.27555555000004c0 10.05454222 8.14990222 18.20444445 18.20444445 18.20444445z m316.30222222 326.54222222h500.62222223v-163.84c0-10.05454222-8.14990222-18.20444445-18.20444445-18.20444444H410.73777778V456.81777778c0 10.05454222 8.14990222 18.20444445 18.20444444 18.20444444z"  horiz-adv-x="1024" />

    
    <glyph glyph-name="zhankai" unicode="&#59060;" d="M793.73198222 419.46680889l-46.27342222 44.68508444 44.26069333 45.83310222a9.10222222 9.10222222 0 0 0 12.87054222 0.22528l75.29813334-72.71424-0.08988444-0.09102222 44.71125333-43.17866666a9.10222222 9.10222222 0 0 0 0.22528-12.87054222L801.43701333 253.67893332999995l-45.83310222 44.26069334a9.10222222 9.10222222 0 0 0-0.22414222 12.87054222l34.60892444 35.84H650.80888889v63.71555556a9.10222222 9.10222222 0 0 0 9.10222222 9.10222222h133.82087111zM185.45777778 619.52c-50.27043555 0-91.02222222 40.75178667-91.02222223 91.02222222s40.75178667 91.02222222 91.02222223 91.02222223 91.02222222-40.75178667 91.02222222-91.02222223-40.75178667-91.02222222-91.02222222-91.02222222z m145.63555555 182.04444445h598.47111112v-163.84c0-10.05454222-8.14990222-18.20444445-18.20444445-18.20444445H312.88888889V783.36c0 10.05454222 8.14990222 18.20444445 18.20444444 18.20444445zM112.64 148.48000000000002h816.92444445v-163.84c0-10.05454222-8.14990222-18.20444445-18.20444445-18.20444445H94.43555555V130.27555555000004c0 10.05454222 8.14990222 18.20444445 18.20444445 18.20444445z m0 326.54222222h500.62222222v-163.84c0-10.05454222-8.14990222-18.20444445-18.20444444-18.20444444H94.43555555V456.81777778c0 10.05454222 8.14990222 18.20444445 18.20444445 18.20444444z"  horiz-adv-x="1024" />

    
    <glyph glyph-name="xiaoxi" unicode="&#58967;" d="M512-66c-71.47415742 0-136.20337119 42.17865205-165.99438193 106.55393291h-160.786517a77.08651699 77.08651699 0 0 0-64.04157334 119.80112344l47.38651699 70.99887656V437.28202237A342.63707872 342.63707872 0 0 0 394.81797763 760.01797763C416.41797763 804.70449463 462.15617979 834 512 834s95.57191055-29.32584258 117.17191055-73.97191055a342.63707872 342.63707872 0 0 0 226.27415654-322.74606708v-205.91797764l47.37640518-71.00898838a77.0764043 77.0764043 0 0 0-64.10224776-119.83146065h-160.78651699C648.1831458-23.811236140000005 583.46404472-66 512-66z m0 852.47191055c-34.60449463 0-64.94157334-21.15505635-77.30898838-53.89887657l-4.04494453-10.63820215-10.8-3.53932646a295.28089893 295.28089893 0 0 1-203.79438193-281.12359482v-220.28764131l-55.37528086-82.92134796a29.56853935 29.56853935 0 0 1 24.57303398-45.9303372h193.44943828l5.62247139-15.80561806c19.213483-54.27303398 70.56404473-90.73820214 127.65842754-90.73820216s108.37415742 36.46516817 127.64831396 90.73820216l5.61235958 15.80561806h193.44943827a29.54831484 29.54831484 0 0 1 24.58314668 45.9303372l-55.35505635 82.92134796V437.28202237a295.28089893 295.28089893 0 0 1-203.80449462 281.1235957l-10.81011182 3.53932558-4.04494453 10.64831484c-12.14494365 32.23820215-43.1898873 53.88876386-77.25842666 53.88876388zM355.17752773 88.00112344000001h319.68202325v-47.51797764H355.17752773z"  horiz-adv-x="1024" />

    
    <glyph glyph-name="tielu" unicode="&#58934;" d="M853.00386125-48.78249665999999l-119.53668 0-25.01930531 56.52509625-428.10810844 0-25.01930531-56.52509625-119.53668 0 122.31660187 176.98841719q-36.13899656 10.19305031-59.30501906 40.77220031t-23.16602344 70.42471031l0 405.86872594q0 24.09266437 12.50965219 45.86872594t30.57915094 39.84556031 37.0656375 31.04247094 32.89575281 19.45945968 30.57915094 13.89961407 39.84556031 12.97297312 53.74517344 9.26640938 71.35135125 3.70656375q46.33204594 0 81.54440156-4.16988375t61.62162188-11.11969125 46.33204593-15.75289594 36.60231657-18.06949781 35.21235562-21.31274157 33.35907375-27.33590718 24.55598438-34.74903469 9.72972937-43.55212313l0-405.86872593q0-39.84556031-23.62934344-70.42471032t-59.76834-40.77220031zM407.289575 761.1016733399999q-12.04633219 0-20.38610062-8.33976844t-8.33976844-21.31274156q0-12.04633219 8.33976844-20.38610062t20.38610062-8.33976844l176.06177625 0q12.04633219 0 20.38610062 8.33976844t8.33976844 20.38610062q0 12.97297312-8.33976844 21.31274156t-20.38610062 8.33976844l-176.06177625 0zM233.08108063 471.06306272l521.69884125-1e-8 0 174.20849438-521.69884125 0 0-174.20849437zM262.73359063 169.90476177999994q16.67953687 0 28.72586906 12.04633218t12.04633218 28.72586907q0 17.60617781-12.04633218 29.65251t-28.72586907 12.04633218q-17.60617781 0-29.65251-12.04633218t-12.04633218-29.65251q0-16.67953687 12.04633218-28.72586907t29.65251-12.04633218zM681.57528969 65.19433677999996l-25.94594625 58.37837812-322.4710425 0-26.87258719-58.37837812 375.289575 0zM684.3552125 210.67696303000002q0-16.67953687 12.04633219-28.72586907t29.65251-12.04633218 29.65251 12.04633218 12.04633218 28.72586907q0 17.60617781-12.04633218 29.65251t-29.65251 12.04633218-29.65251-12.04633218-12.04633219-29.65251z"  horiz-adv-x="1024" />

    
    <glyph glyph-name="youhaocanshushezhi" unicode="&#58935;" d="M649.12 152.992s-149.024-48.384-175.168-14.432c-26.112 33.824-142.496 0-142.496 0s-156.864-20.864-189.568 11.872c-32.672 32.64-133.312-11.872-133.312-11.872v-37.888c0-11.488 9.344-20.864 20.928-20.864h726.752c11.52 0 20.928 9.376 20.928 20.864v43.744c-10.4 14.944-128.064 8.576-128.064 8.576zM104.064 534.144h43.488v-450.464H104.064zM626.016 326.432h43.488v-246.624h-43.488zM71.296 599.168h76.288v-50.816H71.296zM52.256 599.168a57.184 12.192 0 1 1 114.368 0 57.184 12.192 0 1 1-114.368 0ZM52.256 599.168a57.184 12.192 0 1 1 114.368 0 57.184 12.192 0 1 1-114.368 0ZM900.704 339.616l0 0z m0.832 99.36a119.04 119.04 0 0 1-119.04-119.04 119.04 119.04 0 1 1 238.144 0 119.072 119.072 0 0 1-119.104 119.04z m70.496-147.04c0-7.36 3.68-13.888 9.216-17.952a99.136 99.136 0 0 0-11.648-16.512 21.44 21.44 0 0 1-23.904-4.672 21.92 21.92 0 0 1-6.304-15.488c0-0.64 0.128-1.12 0.192-1.76a91.744 91.744 0 0 0-22.816-7.488 21.6 21.6 0 0 1-21.408 20.064 21.408 21.408 0 0 1-20.864-17.696 92.768 92.768 0 0 0-24.384 11.424 21.632 21.632 0 0 1 1.248 6.432 21.696 21.696 0 0 1-21.728 21.696c-2.176 0-4.192-0.64-6.208-1.248a92.736 92.736 0 0 0-11.424 24.448 21.344 21.344 0 0 1 17.504 20.8 21.536 21.536 0 0 1-19.968 21.376c1.728 9.248 4.64 18.144 8.8 26.304a21.056 21.056 0 0 1 11.328-3.616 21.696 21.696 0 0 1 21.728 21.664 21.28 21.28 0 0 1-5.504 14.112c5.536 4.224 11.488 7.776 17.856 10.624 3.264-8.032 11.2-13.728 20.544-13.728a21.792 21.792 0 0 1 22.016 21.056c7.712-0.384 15.328-1.696 22.688-3.936a21.856 21.856 0 0 1-1.12-6.368 22.08 22.08 0 0 1 37.6-15.616c4.448-4.256 8.384-8.992 11.872-14.048a21.696 21.696 0 0 1-3.616-22.4 21.76 21.76 0 0 1 18.272-13.504c0.992-5.376 1.568-10.88 1.568-16.512 0-1.952-0.384-3.744-0.544-5.632a21.824 21.824 0 0 1-20.992-21.824z m-17.408 40.448a10.752 10.752 0 0 1-8.448 0.384c-0.096-0.064-0.224-0.192-0.384-0.192-0.224 0.928-0.352 1.952-0.704 2.944a43.904 43.904 0 0 1-3.776 7.808l0.96 0.128a11.04 11.04 0 0 1 6.272 14.048 10.912 10.912 0 0 1-13.792 6.72 10.592 10.592 0 0 1-6.496-6.624 41.664 41.664 0 0 1-8.192 4.736 11.136 11.136 0 0 1-1.792 12.32 11.328 11.328 0 0 1-12.096 3.008 11.008 11.008 0 0 1-7.104-11.328 50.496 50.496 0 0 1-11.68-1.856c-0.096 0.096-0.032 0.256-0.096 0.352a11.2 11.2 0 0 1-5.824 6.272 11.424 11.424 0 0 1-8.544 0.256 11.168 11.168 0 0 1-6.848-14.24 11.104 11.104 0 0 1 2.176-3.488c-2.56-2.528-4.768-5.28-6.752-8.192a10.816 10.816 0 0 1-15.296-4.896 11.36 11.36 0 0 1-0.352-8.512 11.04 11.04 0 0 1 8.096-6.816c-0.608-4.512-0.288-9.248 0.544-13.952-0.416-0.064-0.736 0-1.152-0.192a10.88 10.88 0 0 1-6.208-5.696 11.232 11.232 0 0 1-0.32-8.576 11.104 11.104 0 0 1 14.176-6.752c0.768 0.256 1.28 0.8 1.952 1.184 2.784-3.68 6.112-6.752 9.76-9.44-3.968-2.88-5.632-7.936-3.968-12.512a10.944 10.944 0 0 1 21.248 4.512c4.352-0.992 8.832-1.632 13.504-1.376 0.096-0.736 0.032-1.568 0.32-2.304 2.144-5.76 8.544-8.672 14.304-6.56a11.104 11.104 0 0 1 6.72 14.112c-0.128 0.384-0.384 0.576-0.512 0.928 3.52 2.016 6.656 4.64 9.504 7.488 2.304-5.312 8.32-7.936 13.792-6.048a11.2 11.2 0 0 1-3.296 21.664c1.344 3.2 2.144 6.624 2.72 10.112a11.36 11.36 0 0 1 6.688 0 11.104 11.104 0 0 1 6.624 14.176 10.88 10.88 0 0 1-5.728 6.4z m-53.92-47.392a34.4 34.4 0 1 0 0 68.8 34.4 34.4 0 0 0 0-68.8zM705.184 403.616c0-0.672 0.128-1.312 0.576-1.76 0.416-0.448 0.8-0.896 1.248-1.216a6.624 6.624 0 0 1 4.512-1.248h23.84c0.736 0 1.504 0 2.272 0.096a8.288 8.288 0 0 1 3.68 1.152 3.136 3.136 0 0 1 1.504 2.72v27.904h-37.632v-27.648z m24.48 308.832a214.432 214.432 0 0 1 0-428.832 215.36 215.36 0 0 1 56.672 7.808 118.048 118.048 0 0 0-3.808 28.512c0 1.44 0.384 2.752 0.448 4.192a181.984 181.984 0 0 0-235.296 174.08 182.048 182.048 0 0 0 364.064 0c0-20.768-3.648-40.64-10.048-59.264 11.392 0 22.176-2.112 32.64-5.12a214.528 214.528 0 0 1-204.672 278.624z m129.504-201.472h33.728a165.088 165.088 0 0 1-3.104 23.712l-17.472-4.704-4.896 18.24 16.768 4.512a165.472 165.472 0 0 1-9.536 21.632l-14.72-8.48-9.44 16.384 14.944 8.672a164.032 164.032 0 0 1-15.04 18.208l-22.976-22.944-13.376 13.376 22.624 22.624a170.08 170.08 0 0 1-18.528 14.304l-8.192-14.208-16.352 9.472 7.936 13.76a163.392 163.392 0 0 1-21.696 8.544l-4.064-15.104-18.304 4.896 4.224 15.616c-7.136 1.376-14.528 1.76-21.952 2.208v-33.888h-18.88V661.824c-8.32-0.448-16.64-0.896-24.576-2.528l4.256-15.776-18.272-4.896-4.032 15.072a164.48 164.48 0 0 1-21.568-8.768l7.968-13.76-16.448-9.472L640 635.904a158.528 158.528 0 0 1-18.4-14.56l22.72-22.688-13.344-13.376-22.88 22.848c-5.312-5.856-10.56-11.712-15.008-18.24l15.104-8.704-9.44-16.384-14.688 8.448a165.056 165.056 0 0 1-9.28-21.696l16.736-4.512-4.864-18.304-17.504 4.672c-1.696-7.68-2.24-15.68-2.816-23.744h33.856v-18.912h-34.24c4-87.328 75.456-156.928 163.744-156.928 19.488 0 37.952 3.872 55.264 10.112a118.848 118.848 0 0 0 96.352 92.992 164.064 164.064 0 0 1 12.256 55.104H859.2v18.944z m-81.952-145.632v-0.32c-0.064-0.16-0.096-0.384-0.256-0.48-1.088-0.992-2.176-1.984-3.36-2.784a13.536 13.536 0 0 0-10.112-2.24 18.24 18.24 0 0 0-8.672 4.32c-0.32 0.224-0.416 0.512-0.416 0.864v30.304h-7.296l-0.032-0.48v-35.744c0-0.352 0.096-0.448 0.448-0.448h5.92v-5.472h-57.632V358.4h5.056v0.448l0.032 16.768c0.064 8.768 0.096 17.504 0.096 26.272 0 9.728 0 19.424 0.064 29.152 0 0.48 0.032 0.992 0.16 1.44a2.464 2.464 0 0 0 2.336 1.92h16.832l24.512-0.032c0.256 0 0.576-0.064 0.736-0.224 0.96-0.704 1.472-1.6 1.472-2.848l-0.032-32.64v-0.608h0.32c1.888 0.224 3.776 0.544 5.696 0.672a17.792 17.792 0 0 0 3.456-0.032c1.888-0.224 2.912-1.376 3.2-3.2 0.096-0.672-0.064-1.344-0.064-2.016v-27.776c0-0.288 0.096-0.448 0.32-0.544 0.608-0.384 1.184-0.8 1.824-1.088a9.024 9.024 0 0 1 9.152 0.576c0.288 0.16 0.384 0.384 0.384 0.672l0.256 8.256c0.192 4.48 0.384 9.024 0.512 13.504l0.416 10.368c0.128 4.48 0.256 8.992 0.448 13.408 0.064 0.352-0.032 0.576-0.32 0.864a49.6 49.6 0 0 0-5.408 6.432c-0.608 0.864-1.024 1.856-1.44 2.784a2.016 2.016 0 0 0-0.032 1.152c0.128 0.672 1.024 0.928 1.568 0.48l9.536-9.056a1.28 1.28 0 0 0 0.448-1.056c-0.128-15.68-0.128-31.36-0.128-47.104z m-15.904 138.4a32.416 32.416 0 0 0-49.184-30.624l-35.264-21.92-16.672 32.096 36.416 15.232-0.096 2.272a32.416 32.416 0 0 0 56.768 21.504l76.704 32.128 2.88-6.208-71.552-44.48z m-31.84 15.52a18.24 18.24 0 1 1 0.032-36.512 18.24 18.24 0 0 1-0.032 36.512zM766.56 287.072v-184.64c0-10.368-8.928-18.752-20.032-18.752h-707.2c-11.104 0-20.096 8.384-20.096 18.752V515.36c0 10.368 8.992 18.784 20.096 18.784h479.136c0.8 4.8 1.792 9.536 2.912 14.208H24.32a20.896 20.896 0 0 1-20.928-20.896v-438.656c0-11.552 9.376-20.864 20.928-20.864h737.248c11.52 0 20.928 9.312 20.928 20.864v201.696a187.84 187.84 0 0 0-15.936-3.424z"  horiz-adv-x="1024" />

    
    <glyph glyph-name="rongyu" unicode="&#58902;" d="M911.8 719.5h-63.4v72.6c0 19.9-16.2 36.1-36.1 36.1H214.8c-19.9 0-36.1-16.2-36.1-36.1v-72.6h-63.4C88.7 719.5 67 698.2 67 672v-78.9c0-63.3 48.5-115.9 111.6-125v-14.5c0-45.2 8.9-89.1 26.3-130.4 16.9-39.9 41-75.7 71.8-106.4s66.6-54.9 106.4-71.8c30.9-13.1 63.2-21.3 96.4-24.6v-118.5H323.2c-18.8 0-34-15.2-34-34s15.2-34 34-34h380.7c18.8 0 34 15.2 34 34s-15.2 34-34 34H547.5V120.10000000000002v0.3c33.2 3.3 65.5 11.6 96.4 24.6 39.9 16.9 75.7 41 106.4 71.8s54.9 66.6 71.8 106.4c17.5 41.3 26.3 85.2 26.3 130.4v14.5c63.1 9.1 111.6 61.7 111.6 125V672c0 26.2-21.6 47.5-48.2 47.5zM135 593.1v58.4h43.6v-114c-25.2 7.7-43.6 29.7-43.6 55.6z m645.4-139.5c0-71.3-27.8-138.3-78.2-188.7s-117.4-78.2-188.7-78.2c-71.3 0-138.3 27.8-188.7 78.2-50.4 50.4-78.2 117.4-78.2 188.7V760.3h533.7v-306.7zM892 593.1c0-25.9-18.3-48-43.6-55.6v114H892v-58.4zM408.5 471l-13.1-76.6c-2.2-12.8 3.1-25.6 13.5-33.3 10.5-7.6 24.4-8.6 35.8-2.6l68.8 36.2 68.8-36.2c5-2.6 10.4-3.9 15.8-3.9 7 0 14.1 2.2 20 6.5 10.5 7.6 15.7 20.5 13.5 33.3L618.5 471l55.6 54.2c9.3 9 12.6 22.5 8.6 34.9-4 12.3-14.6 21.3-27.4 23.1l-76.9 11.2-34.4 69.7c-5.7 11.6-17.5 19-30.5 19-12.9 0-24.8-7.3-30.5-19l-34.4-69.7-76.9-11.2c-12.8-1.9-23.4-10.8-27.4-23.1s-0.7-25.8 8.6-34.9l55.6-54.2z m67.6 58.7c11.1 1.6 20.6 8.6 25.6 18.6l11.8 23.9 11.8-23.9c5-10 14.5-17 25.6-18.6l26.4-3.8-19.1-18.6c-8-7.8-11.7-19.1-9.8-30.1l4.5-26.3-23.6 12.4c-5 2.6-10.4 3.9-15.8 3.9s-10.9-1.3-15.8-3.9l-23.6-12.4 4.5 26.3c1.9 11-1.8 22.3-9.8 30.1l-19.1 18.6 26.4 3.8z"  horiz-adv-x="1024" />

    
    <glyph glyph-name="yuniyou" unicode="&#58885;" d="M815.90044445-42.325333330000035H210.48888889c-33.792 0-61.32622222 23.32444445-61.32622222 51.99644445 0 1.024 0.11377778 2.16177778 0.45511111 3.18577777l88.86044444 308.224c1.70666667 6.03022222 8.07822222 9.55733333 14.10844445 7.7368889 6.03022222-1.70666667 9.55733333-8.07822222 7.73688888-14.10844445l-88.40533333-306.51733333c1.024-15.13244445 18.20444445-27.76177778 38.45688889-27.76177778H815.78666667c20.25244445 0 37.43288889 12.51555555 38.45688888 27.76177778L742.51377778 395.94666667c-0.34133333 1.024-0.45511111 2.048-0.45511111 3.18577778 0 15.81511111-17.63555555 29.24088889-38.57066667 29.24088889H322.78755555c-20.93511111 0-38.57066667-13.42577778-38.57066666-29.24088889 0-1.024-0.11377778-2.16177778-0.45511111-3.18577778l-10.58133333-36.75022222c-1.70666667-6.03022222-8.07822222-9.55733333-14.10844445-7.73688889-6.03022222 1.70666667-9.55733333 8.07822222-7.73688889 14.10844445l10.24 35.27111111c1.024 27.87555555 28.10311111 50.176 61.32622222 50.176h380.70044445c33.10933333 0 60.18844445-22.41422222 61.32622222-50.176l111.95733333-388.096c0.34133333-1.024 0.45511111-2.048 0.45511112-3.18577778-0.11377778-28.55822222-27.648-51.88266667-61.44-51.88266667zM692.11022222 469.44711112H334.16533333c-31.40266667 0-56.88888889 25.48622222-56.88888888 56.88888889V654.5635555599999c0 31.40266667 25.48622222 56.88888889 56.88888888 56.88888889h357.94488889c31.40266667 0 56.88888889-25.48622222 56.88888889-56.88888889v-128.11377777c0-31.40266667-25.48622222-57.00266667-56.88888889-57.00266667zM334.16533333 688.69688889c-18.77333333 0-34.13333333-15.36-34.13333333-34.13333333v-128.11377777c0-18.77333333 15.36-34.13333333 34.13333333-34.13333334h357.94488889c18.77333333 0 34.13333333 15.36 34.13333333 34.13333334V654.5635555599999c0 18.77333333-15.36 34.13333333-34.13333333 34.13333333H334.16533333zM699.16444445 538.51022223h-41.18755556c-6.25777778 0-11.37777778 5.12-11.37777778 11.37777778s5.12 11.37777778 11.37777778 11.37777778h41.18755556c6.25777778 0 11.37777778-5.12 11.37777777-11.37777778s-5.12-11.37777778-11.37777777-11.37777778zM601.42933333 538.51022223h-274.20444444c-6.25777778 0-11.37777778 5.12-11.37777778 11.37777778s5.12 11.37777778 11.37777778 11.37777778h274.20444444c6.25777778 0 11.37777778-5.12 11.37777778-11.37777778s-5.12-11.37777778-11.37777778-11.37777778zM513.70666667 19.911111119999987c-75.43466667 0-150.98311111 0.68266667-225.96266667 1.93422222-12.97066667 0-26.28266667 5.80266667-34.816 15.01866667-6.94044445 7.50933333-10.35377778 16.83911111-9.55733333 26.39644444 0 0.56888889 0.11377778 1.024 0.22755555 1.59288889 2.048 9.10222222 4.66488889 16.61155555 7.50933333 24.576 1.024 2.95822222 2.16177778 6.03022222 3.29955556 9.32977778 3.64088889 15.13244445 8.07822222 30.03733333 12.288 44.37333333 3.64088889 12.17422222 7.39555555 24.80355555 10.46755556 37.20533334 1.59288889 6.144 7.73688889 9.78488889 13.76711111 8.192 6.144-1.59288889 9.78488889-7.73688889 8.192-13.76711112-3.29955555-12.85688889-7.05422222-25.71377778-10.69511111-38.11555555-4.20977778-14.22222222-8.64711111-28.89955555-12.06044445-43.69066667-0.11377778-0.34133333-0.11377778-0.68266667-0.22755555-0.91022222-1.25155555-3.64088889-2.38933333-6.94044445-3.52711112-10.24-2.61688889-7.28177778-4.89244445-13.65333333-6.5991111-20.93511111 0-3.072 1.13777778-5.91644445 3.64088888-8.53333333 4.32355555-4.66488889 11.60533333-7.73688889 18.31822222-7.7368889h0.22755556c149.73155555-2.61688889 301.51111111-2.61688889 451.24266667 0h0.22755555c7.50933333 0 15.70133333 3.98222222 19.79733334 9.67111112 1.024 1.59288889 1.36533333 3.64088889 1.024 5.34755555-13.88088889 50.28977778-28.44444445 99.89688889-42.43911112 147.79733333-13.99466667 47.90044445-28.44444445 97.28-42.4391111 147.68355556-2.38933333 5.68888889-10.35377778 8.64711111-16.72533334 9.55733334-67.81155555 2.84444445-136.41955555 2.27555555-202.63822222 1.70666666-26.85155555-0.22755555-54.49955555-0.45511111-81.92-0.45511111-6.94044445 0-19.11466667-1.36533333-22.64177778-10.12622222 0 0 0-0.11377778-0.11377778-0.11377778-4.32355555-10.35377778-18.88711111-62.91911111-27.53422222-94.32177778-4.66488889-17.06666667-7.168-26.05511111-8.07822222-28.78577777-1.93422222-5.91644445-8.41955555-9.216-14.336-7.28177778-5.91644445 1.93422222-9.216 8.41955555-7.28177778 14.336 0.79644445 2.27555555 3.98222222 14.10844445 7.73688889 27.648 12.40177778 44.82844445 23.89333333 86.016 28.44444445 96.93866666 6.25777778 15.47377778 22.18666667 24.34844445 43.69066666 24.34844445 27.30666667 0 54.95466667 0.22755555 81.80622222 0.45511111 66.78755555 0.56888889 135.73688889 1.13777778 204.34488889-1.82044444 0.34133333 0 0.68266667 0 0.91022223-0.11377778 17.52177778-2.16177778 30.83377778-11.37777778 35.84-24.576 0.11377778-0.34133333 0.22755555-0.68266667 0.34133333-0.91022222 13.88088889-50.40355555 28.44444445-100.01066667 42.43911111-147.91111112 14.10844445-48.01422222 28.55822222-97.73511111 42.55288889-148.25244444 0-0.11377778 0-0.22755555 0.11377777-0.22755556 2.048-7.96444445 0.45511111-16.61155555-4.20977777-23.66577778-0.11377778-0.11377778-0.11377778-0.22755555-0.22755556-0.34133333-8.41955555-11.71911111-23.43822222-19.34222222-38.34311111-19.34222222-75.09333333-1.36533333-150.528-1.93422222-226.07644444-1.93422222zM512.68266667 112.29866666999999c-26.624 0-55.18222222 4.66488889-80.66844445 18.54577778-59.84711111 32.768-87.49511111-6.59911111-88.63288889-8.30577778-3.41333333-5.23377778-10.46755555-6.71288889-15.70133333-3.18577778-5.23377778 3.41333333-6.71288889 10.58133333-3.18577778 15.81511112 1.024 1.59288889 10.69511111 15.58755555 30.15111111 24.576 17.97688889 8.192 47.90044445 13.312 88.40533334-8.87466667 64.85333333-35.49866667 158.15111111 0.22755555 159.06133333 0.56888889 2.84444445 1.13777778 69.06311111 26.51022222 99.21422222-10.01244444 3.98222222-4.89244445 3.29955555-12.06044445-1.47911111-16.04266667-4.89244445-3.98222222-12.06044445-3.29955555-16.04266666 1.47911111-16.27022222 19.79733333-58.59555555 9.10222222-73.38666667 3.29955556-2.84444445-1.024-46.87644445-17.86311111-97.73511111-17.86311112zM512.79644445 186.59555555999998c-18.432 0-38.22933333 3.18577778-55.97866667 12.85688889-16.27022222 8.87466667-30.49244445 10.69511111-42.32533333 5.34755556-8.192-3.75466667-12.288-9.55733333-12.288-9.67111112-3.41333333-5.23377778-10.46755555-6.71288889-15.81511112-3.29955555-5.23377778 3.41333333-6.71288889 10.46755555-3.29955555 15.81511111 0.79644445 1.13777778 7.73688889 11.37777778 21.84533333 17.86311111 12.85688889 5.80266667 34.13333333 9.55733333 62.69155556-6.03022222 41.984-22.98311111 103.08266667 0.34133333 103.65155555 0.56888889 5.00622222 1.93422222 49.26577778 18.31822222 70.88355556-7.85066667 3.98222222-4.89244445 3.29955555-12.06044445-1.47911111-16.04266667-4.89244445-3.98222222-12.06044445-3.29955555-16.04266667 1.47911112-9.67111111 11.71911111-38.00177778 3.86844445-45.056 1.13777778-1.70666667-0.68266667-31.744-12.17422222-66.78755555-12.17422223zM548.75022222 691.31377779h-101.71733333c-3.75466667 0-7.39555555 1.93422222-9.44355556 5.00622222-2.16177778 3.18577778-2.50311111 7.168-1.024 10.69511111 1.47911111 3.75466667 3.75466667 7.05422222 6.59911112 9.78488889L540.44444445 814.19377779c5.68888889 5.68888889 13.312 8.87466667 21.39022222 8.87466666 8.07822222 0 15.70133333-3.18577778 21.39022222-8.87466666l25.25866666-25.25866667c11.71911111-11.83288889 11.71911111-30.94755555 0-42.66666667l-51.54133333-51.54133333c-2.27555555-2.16177778-5.12-3.41333333-8.192-3.41333333z m-76.23111111 22.75555555h71.56622222l48.24177778 48.24177778c2.84444445 2.84444445 2.84444445 7.62311111 0 10.58133333l-25.25866666 25.25866667c-1.36533333 1.36533333-3.29955555 2.16177778-5.23377778 2.16177777s-3.86844445-0.79644445-5.23377778-2.16177777l-84.08177778-84.08177778z"  horiz-adv-x="1024" />

    
    <glyph glyph-name="danwei" unicode="&#58890;" d="M207.36 635.733333h116.053333v-116.053333H207.36zM361.813333 635.733333H477.866667v-116.053333H361.813333zM977.066667-0.853333h-31.573334V521.386667c0 67.413333-57.173333 122.026667-127.146666 122.026666h-204.8v81.066667c0 67.413333-54.613333 122.026667-122.026667 122.026667H194.56c-67.413333 0-122.026667-54.613333-122.026667-122.026667v-725.333333h-25.6c-21.333333 0-38.4-17.066667-38.4-38.4s17.066667-38.4 38.4-38.4h929.28c21.333333 0 38.4 17.066667 38.4 38.4 0.853333 20.48-16.213333 38.4-37.546666 38.4z m-440.32 0H149.333333v725.333333c0 22.186667 20.48 40.96 45.226667 40.96h297.813333c24.746667 0 45.226667-18.773333 45.226667-40.96v-725.333333z m331.093333 0H613.546667v563.2h203.946666c27.306667 0 49.493333-18.773333 49.493334-40.96v-522.24zM207.36 248.32h116.053333v-116.053333H207.36zM207.36 442.026667h116.053333v-116.053334H207.36zM361.813333 248.32H477.866667v-116.053333H361.813333zM361.813333 442.026667H477.866667v-116.053334H361.813333zM685.226667 248.32h116.053333v-116.053333H685.226667zM685.226667 442.026667h116.053333v-116.053334H685.226667z"  horiz-adv-x="1024" />

    
    <glyph glyph-name="kufangguanli" unicode="&#58899;" d="M368 294.40000031h-76.8c-28.8 0-35.20000031-6.40000031-35.20000031-38.4v-80.00000062c0-31.99999969 6.40000031-38.4 35.20000031-38.4h76.8c28.8 0 35.20000031 6.40000031 35.20000031 38.4V256.00000031c3.19999969 31.99999969-3.19999969 38.4-35.20000031 38.4zM368 492.79999969h-76.8c-28.8 0-35.20000031-6.40000031-35.20000031-38.4v-79.99999969c0-31.99999969 6.40000031-38.4 35.20000031-38.4h76.8c28.8 0 35.20000031 6.40000031 35.20000031 38.4v79.99999969c3.19999969 31.99999969-3.19999969 38.4-35.20000031 38.4zM368 96h-76.8c-28.8 0-35.20000031-6.40000031-35.20000031-38.4v-79.99999969c0-31.99999969 6.40000031-38.4 35.20000031-38.4h76.8c28.8 0 35.20000031 6.40000031 35.20000031 38.4v79.99999969c3.19999969 31.99999969-3.19999969 38.4-35.20000031 38.4zM1011.2 521.59999969l-457.60000031 329.60000062c-3.19999969 3.19999969-6.40000031 6.40000031-12.79999969 9.6-16.00000031 6.40000031-35.20000031 3.19999969-41.59999969-12.80000062l-454.40000062-329.59999969c-12.79999969-12.79999969-16.00000031-35.20000031-6.39999938-48 9.6-16.00000031 28.8-22.39999969 44.79999938-12.79999969l32.00000062 22.39999969v-540.79999969c0-19.2 16.00000031-35.20000031 35.19999938-35.20000031 19.2 0 35.20000031 16.00000031 35.20000031 35.20000031v591.99999938l339.19999969 246.40000031 345.6-249.6 73.60000031-51.19999969 25.60000031-16.00000031c16.00000031-9.6 35.20000031-3.19999969 44.79999938 12.79999969 12.79999969 12.79999969 12.79999969 35.20000031-3.19999969 48zM764.79999969 352.00000031v-70.40000062h-220.8v-63.99999938h220.8v-70.40000062h73.60000031v70.40000062h79.99999969v63.99999938h-79.99999969V352.00000031zM704 182.39999999999998h-76.8v-70.39999969h-83.20000031v-64.00000031h83.20000031v-79.99999969h76.8v70.39999969h223.99999969v64.00000031h-223.99999969z"  horiz-adv-x="1058" />

    
    <glyph glyph-name="lishi" unicode="&#58969;" d="M624.83009961 454.95984346a35.25954961 35.25954961 0 0 0-23.80019589 8.8148874L425.61364502 621.56121474a35.25954961 35.25954961 0 0 0 0.88148935 52.88932354L601.91139307 825.1851126a35.32830557 35.32830557 0 1 0 45.83741396-53.77081289L503.18465469 647.1243876l145.44564081-130.46033232a35.25954961 35.25954961 0 0 0-23.80019589-61.70421182zM538.44420342-66h-22.91870654A391.38099873 391.38099873 0 0 0 124.14449727 325.38099873a357.00293847 357.00293847 0 0 0 107.54162578 255.63173379l11.45935371 11.45935371a35.28423106 35.28423106 0 1 0 46.71890332-52.88932441l-9.69637588-8.81488741a285.60235078 285.60235078 0 0 1-86.38589619-205.38687568c0-177.17923565 143.68266386-320.86190039 320.86189951-320.86189951h22.91870742c160.43095019 0 290.8912834 130.4603332 290.8912834 290.89128252 0 174.53477021-141.91968691 317.33594473-317.33594561 317.3359456h-29.08912851a35.25954961 35.25954961 0 0 0 0 70.51909834h29.970617a386.97355547 386.97355547 0 0 0 387.85504482-387.85504394 361.41038174 361.41038174 0 0 0-361.41038262-361.41038174zM639.8154081 232.82468143999995H486.43636836a35.25954961 35.25954961 0 0 0-35.25954961 35.25954962V479.64152783a35.25954961 35.25954961 0 1 0 70.51909922 0v-176.29774717h118.11949013a35.25954961 35.25954961 0 0 0 0-70.51909922z"  horiz-adv-x="1024" />

    
    <glyph glyph-name="beian" unicode="&#58913;" d="M818.51733333 487.65155555V839.90755555H216.064v-352.256H81.23733333v-546.92977777H944.35555555V487.65155555H818.51733333zM256.34133333 799.63022222H778.24v-310.15822222H256.34133333V799.63022222z m647.73688889-818.63111111H121.51466667V447.37422222h782.56355555v-466.37511111z m-56.77511111 432.128h-669.01333333V394.24h669.01333333v18.88711111zM327.45244445 655.13244445h367.27466666v40.27733333H327.45244445v-40.27733333z m-42.09777778 101.60355555H750.93333333v18.54577778H285.35466667v-18.54577778z m42.09777778-202.18311111h367.27466666v40.27733333H327.45244445v-40.27733333zM504.14933333 344.17777778000004c-79.41688889 0-144.04266667-64.62577778-144.04266666-144.04266667s64.62577778-144.04266667 144.04266666-144.04266666 144.04266667 64.62577778 144.04266667 144.04266666S583.56622222 344.17777778000004 504.14933333 344.17777778000004z m0-251.44888889c-59.16444445 0-107.29244445 48.128-107.29244444 107.29244444s48.128 107.29244445 107.29244444 107.29244445 107.29244445-48.128 107.29244445-107.29244445-48.128-107.29244445-107.29244445-107.29244444z m0 193.64977778v-18.54577778c36.40888889 0 66.10488889-29.696 66.10488889-66.10488889s-29.696-66.10488889-66.10488889-66.10488889v-18.54577778c46.64888889 0 84.65066667 38.00177778 84.65066667 84.65066667s-38.00177778 84.65066667-84.65066667 84.65066667z"  horiz-adv-x="1024" />

    
    <glyph glyph-name="buju" unicode="&#58898;" d="M270.92857168 769.71428584a32.14285752 32.14285752 0 0 0 32.14285664-32.14285752v-707.14285665a32.14285752 32.14285752 0 0 0-32.14285664-32.14285751H158.42857168a32.14285752 32.14285752 0 0 0-32.14285752 32.14285751V737.57142832a32.14285752 32.14285752 0 0 0 32.14285752 32.14285752h112.49999999m0 64.28571416H158.42857168a96.42857168 96.42857168 0 0 1-96.42857168-96.42857168v-707.14285665a96.42857168 96.42857168 0 0 1 96.42857168-96.42857167h112.5a96.42857168 96.42857168 0 0 1 96.4285708 96.42857167V737.57142832a96.42857168 96.42857168 0 0 1-96.4285708 96.42857168zM897.71428584 769.71428584v-225H512V769.71428584h385.71428584m0 64.28571416H512a64.28571416 64.28571416 0 0 1-64.28571416-64.28571416v-225a64.28571416 64.28571416 0 0 1 64.28571416-64.28571416h385.71428584a64.28571416 64.28571416 0 0 1 64.28571416 64.28571416V769.71428584a64.28571416 64.28571416 0 0 1-64.28571416 64.28571416zM608.42857168 303.64285752v-305.35714336h-96.42857168V303.64285752h96.42857168m0 64.28571415h-96.42857168a64.28571416 64.28571416 0 0 1-64.28571416-64.28571415v-305.35714336a64.28571416 64.28571416 0 0 1 64.28571416-64.28571416h96.42857168a64.28571416 64.28571416 0 0 1 64.28571416 64.28571416V303.64285752a64.28571416 64.28571416 0 0 1-64.28571416 64.28571415zM897.71428584 303.64285752v-305.35714336h-96.42857168V303.64285752h96.42857168m0 64.28571415h-96.42857168a64.28571416 64.28571416 0 0 1-64.28571416-64.28571415v-305.35714336a64.28571416 64.28571416 0 0 1 64.28571416-64.28571416h96.42857168a64.28571416 64.28571416 0 0 1 64.28571416 64.28571416V303.64285752a64.28571416 64.28571416 0 0 1-64.28571416 64.28571415z"  horiz-adv-x="1024" />

    
    <glyph glyph-name="youfeixinxiguanli" unicode="&#59023;" d="M548.2 704.2H301c-25.8 0-47-21.1-47-47v-98.1c0-25.8 21.1-47 47-47h247.3c25.8 0 47 21.1 47 47v98.1c-0.1 25.9-21.2 47-47.1 47z m-17-128H318v64h213.2v-64z m398.2 76.3L811.8 769.7c-12.5 12.5-32.8 12.4-45.3-0.1s-12.4-32.8 0.1-45.3l93.4-93-67-24.2c-13.6-4.9-20.6-19.9-15.7-33.5 4.9-13.6 19.9-20.6 33.5-15.7l67.4 24.4-0.6-20.4V74c0-12.7-10.3-23-23-23h-4.5c-12.7 0-23 10.3-23 23V481c0 41.9-34.1 76-76 76h-37.7V706.6C713.5 777.5 656 835 585.1 835H251.5c-70.3 0-127.4-57-127.4-127.4v-708.1H81.8v-63.6h674.1v63.6h-42.4V493h37.7c6.6 0 12-5.4 12-12v-407c0-48 39-87 87-87h4.5c48 0 87 39 87 87V560.5l1.6 57.3c0.3 13-4.7 25.6-13.9 34.7zM649.5-0.1H188.2V126.2h461.3v-126.3z m0 189.9H188.2V707.6c0 34.9 28.4 63.4 63.4 63.4h333.5c35.5 0 64.4-28.9 64.4-64.4v-516.8z"  horiz-adv-x="1024" />

    
    <glyph glyph-name="buhegechanpin" unicode="&#58930;" d="M376.61184 560.37376L106.35264 491.27424a20.03456 20.03456 0 0 1-13.6704-26.75712l141.69088-359.1424c4.5824-10.70592 16.3584-15.41632 26.52672-11.0592l263.2704 112.80896a20.03456 20.03456 0 0 0 13.65504 0.768l226.6624-68.13696a20.03456 20.03456 0 0 1 24.80128 12.93824l123.93472 377.7536a20.02944 20.02944 0 0 1-15.19104 25.89696l-256.04608 50.07872-95.14496-82.57536 59.07456-68.56192a20.02944 20.02944 0 0 0 0.6912-25.2928l-122.74688-159.35488c-11.6736-15.1552-35.90656-6.90176-35.90656 12.22144V415.77984l-90.28608 36.61312a20.02944 20.02944 0 0 0-11.27936 25.4464l30.22336 82.5344z m155.4432-541.9264a20.02944 20.02944 0 0 0 20.03456-20.03456v-40.05888a20.02944 20.02944 0 0 0-40.064 0v40.05888a20.02944 20.02944 0 0 0 20.02944 20.03456z m108.032 629.16608l265.63584-51.95264c32.57856-6.3744 53.82144-37.9392 47.44704-70.51264-0.47616-2.432-1.1008-4.83328-1.87392-7.1936l-123.93472-377.74336c-10.1632-30.98112-43.18208-48.2048-74.41408-38.81984l-219.68896 66.04288-256.57344-109.94176c-30.51008-13.07136-65.8432 1.05984-78.91968 31.55968-0.22528 0.54272-47.67744 120.79616-142.35648 360.76544-12.18048 30.8736 2.97984 65.77152 33.85344 77.952 2.33984 0.9216 4.73088 1.6896 7.168 2.31424l307.10784 78.52032c15.616 3.9936 29.31712-11.15136 23.77728-26.2912l-36.64896-100.0704 84.85376-34.4064a20.02944 20.02944 0 0 0 12.50304-18.56512v-87.5776l76.88192 99.80928-61.44 71.31648a20.02944 20.02944 0 0 0 2.04288 28.20096L623.104 643.08224a20.03456 20.03456 0 0 0 16.98304 4.5312zM131.3792 98.56512a20.02944 20.02944 0 1 0 0-40.05888h-40.06912a20.02944 20.02944 0 1 0 0 40.05888h40.06912z m801.34656 10.01472a20.02944 20.02944 0 1 0 0-40.05888h-40.064a20.02944 20.02944 0 1 0 0 40.05888h40.064zM411.8528 679.43936c-44.25728 0-80.13312 35.87072-80.13312 80.11776C331.71968 803.80928 367.59552 839.68 411.8528 839.68s80.13824-35.87072 80.13824-80.12288c0-44.24704-35.88096-80.11776-80.13824-80.11776z m0 40.05888a40.064 40.064 0 1 1 0 80.12288 40.064 40.064 0 1 1 0-80.12288zM91.3152 82.94912c0-56.88832 188.8768-114.57024 420.7104-114.57024s420.7104 57.68192 420.7104 114.57024c0 22.49728-35.54816 49.52576-100.71552 71.46496l-4.6592-14.20288c-10.1632-30.98112-43.18208-48.2048-74.41408-38.81984l-219.68896 66.04288-256.57344-109.94176c-30.51008-13.07136-65.8432 1.05984-78.91968 31.55968-0.33792 0.80896-0.33792 0.80896-0.6656 1.62304l-22.656 57.43104c-54.31296-20.80256-83.12832-45.0048-83.12832-65.15712z m143.0528 22.4256c4.58752-10.70592 16.36352-15.41632 26.53184-11.0592l269.95712 115.67104 233.6256-70.23104a20.03456 20.03456 0 0 1 24.8064 12.93824l16.90624 51.52768 18.66752-5.53984C917.62176 171.15136 972.8 132.11648 972.8 82.94912 972.8-8.83712 767.02208-71.68 512.0256-71.68s-460.77952 62.84288-460.77952 154.624c0 45.66016 47.52384 82.432 128.33792 109.55264l18.02752 6.05184 36.7616-93.17376z"  horiz-adv-x="1024" />

    
    <glyph glyph-name="youqitong_huaban1" unicode="&#59000;" d="M946.44704355 393.32067555l-422.01947614 422.01947614L460.21846873 746.47071645 393.42029392 810.67981392a34.17581037 34.17581037 0 0 1-48.67463821-48.67463821l67.31598931-67.31599053L97.74775349 352.41326576999995a64.72691317 64.72691317 0 0 1 0-90.61767821l295.15472592-295.67254164a67.31599053 67.31599053 0 0 1 46.60337778-19.15916682 66.2803591 66.2803591 0 0 1 44.01430043 17.6057209l391.46837333 362.47071645v-276.51337481h72.49414403v342.2759182z m-294.1190945 158.45148445l-155.3445926 155.34459259 29.5154726 32.10454873 342.79373392-342.79373391-696.46159053-38.83614816 277.03119053 298.7794335 155.34459258-155.34459259a34.17581037 34.17581037 0 1 1 48.67463943 48.6746382z"  horiz-adv-x="1024" />

    
    <glyph glyph-name="tubiaoxian_tongyong_tongji" unicode="&#58943;" d="M128.94628906 0.9375l782.60449219-0.140625c27.60644531-0.13183594 49.86914063-4.93066406 49.72851563-32.51953125-0.13183594-27.41308594-22.31542969-34.14550781-49.72851563-34.27734375H111.97460937c-27.60644531 0-49.97460938 22.36816406-49.97460937 49.97460938V783.54199219C62.140625 811.1484375 70.72753906 833.40234375 98.32519531 833.27050781c27.41308594-0.13183594 30.62109375-22.31542969 30.76171875-49.72851562l-0.140625-782.60449219zM296.07910156 236.34375c-18.984375-20.0390625-45-37.44140625-65.0390625-18.45703125-19.90722656 18.84375-5.46679688 51.09960938 13.18359375 71.19140625l179.04199219 190.13378906c18.24609375 19.46777344 48.59472656 21.1640625 68.89746094 3.84082032l147.91992187-126.21972657 192.70019532 244.10742188c17.10351563 21.65625 40.16601563 30.4453125 61.83984375 13.33300781 21.66503906-17.10351563 7.91015625-41.30859375-1.7578125-56.25L697.73925781 303.140625c-17.11230469-21.65625-35.74511719-50.17675781-57.41015625-33.07324219-0.50097656 0.38671875-40.1484375 33.28417969-20.8125 17.25292969L463.95019531 414.76171875 296.07910156 236.34375z"  horiz-adv-x="1024" />

    
    <glyph glyph-name="xiangmugaikuang" unicode="&#58951;" d="M636.34579472 140.91588779000006h59.67289688l0.32710254-206.40186914-59.99999942-0.51401865z m137.9906543-69.15887842l59.67289687 0.23364493v-137.80373818h-59.67289687zM912.46728974 209.84112129000005h59.67289688v-275.70093399H912.46728974z m-414.01869169-137.80373819h59.67289687v-138.0373831H498.44859805z m-17.0560749 69.11214961l-44.25233643 44.01869151L627.42056065 375.44859814999995l146.40186884-146.40186885 151.21495371 151.21495283 44.11214912-44.11214912-195.28037314-195.28037403L627.42056065 287.27102783zM912.46728974 834H62v-896.68224316h367.28971963v59.57943925H121.67289687V774.23364463h731.0280375v-331.21495283H912.46728974V834zM199.9906543 604.74766347h577.57009307V664.32710273H199.9906543z m0-156.44859784h387.1028039V507.83177607H199.9906543z m0-157.0093462h160.28037333V350.82242987999996h-160.28037333z"  horiz-adv-x="1035" />

    
    <glyph glyph-name="youguanche-" unicode="&#59193;" d="M1200 437.45v16.34c0 123.28-100.28 223.58-223.56 223.58h-47.57v15.92c0 25.01-20.37 45.38-45.38 45.38H617.11c-25.01 0-45.38-20.37-45.38-45.38v-15.92h-96.61c-22.07 0-40.03-17.96-40.03-40.04v-378.95h-15.15V601.87c0 31.18-24.98 56.54-55.68 56.54h-154.3C94.19 658.41 0 561.8 0 443.04v-231.55c0-34.4 27.53-62.37 61.36-62.37h24.81c8.92-66.28 65.7-117.6 134.39-117.6 67.87 0 124.11 50.12 134.05 115.26H479.7c8.88-66.33 65.7-117.7 134.42-117.7s125.54 51.38 134.42 117.7h45.51c8.88-66.33 65.7-117.7 134.42-117.7s125.54 51.38 134.42 117.7h69.12c20.18 0 35.38 18.09 35.38 42.09v69.48h-0.77v0.02h-56.66c55 41.37 90.04 107.29 90.04 179.08z m-52.89 16.34v-16.34c0-69.56-43.05-131.91-105.73-157.87V611.57c61.98-25.62 105.73-86.66 105.73-157.78zM933 474.3h55.5v-34.71h-55.5V474.3z m0-78.79h55.5v-34.71h-55.5v34.71z m55.5 122.86h-55.5v34.71h55.5v-34.71z m-55.5-201.64h55.5v-30.33c-16.84 8.35-35.62 13.29-55.5 13.96v16.37z m55.5 307.14v-26.71h-55.5v27.32h43.43c4.08 0 8.07-0.33 12.07-0.61z m-363.88 61.91h251.37v-8.42H624.62v8.42z m-136.64-61.3h392.14v-332.94a135.756 135.756 0 0 1-42.49-26.09v1.3H703.48c-23.91 20.99-55.14 33.83-89.38 33.83s-65.47-12.84-89.38-33.83h-36.74V624.48z m252.57-410.61h61.43c-1.8-4.62-3.32-9.36-4.61-14.2h-52.21c-1.29 4.84-2.81 9.58-4.61 14.2z m-253.36-1.23c-1.6-4.23-2.98-8.56-4.16-12.98h-63.09v12.98h67.25z m-412.96 311.8h190.39c8.13 0 13.41-2.67 15.37-4.29v-47.84c-1.96-1.62-7.25-4.29-15.37-4.29H54.94c3.05 20.29 9.67 39.33 19.29 56.42z m146.32-440.03c-45.69 0-82.86 37.17-82.86 82.86s37.17 82.88 82.86 82.88 82.88-37.19 82.88-82.88-37.19-82.86-82.88-82.86z m0 218.62c-62.83 0-115.67-42.97-131.07-101.02h-28.12c-4.67 0-8.47 4.25-8.47 9.49V415.14h211.74c38.27 0 68.26 24.17 68.26 55.02V522.3c0 30.85-29.99 55.02-68.26 55.02H121.67c25.18 17.77 55.58 28.2 88.29 28.2h154.3c1.34 0 2.79-1.46 2.79-3.65v-402.21h-14.81c-14.59 59.24-68.02 103.37-131.69 103.37zM614.1 81.96c-45.69 0-82.88 37.19-82.88 82.88s37.19 82.86 82.88 82.86 82.88-37.17 82.88-82.86c-0.01-45.69-37.19-82.88-82.88-82.88z m314.34 0c-45.69 0-82.88 37.19-82.88 82.88s37.19 82.86 82.88 82.86 82.88-37.17 82.88-82.86-37.19-82.88-82.88-82.88zM1059.5 199.67c-1.18 4.42-2.56 8.74-4.16 12.98h59.13v-12.98H1059.5z"  horiz-adv-x="1200" />

    
    <glyph glyph-name="guanxianbiaozhu" unicode="&#59251;" d="M254.79285752 62.571428319999995L254.85714248-1.7142858400000023a64.28571416 64.28571416 0 0 0-64.28571416-64.28571416H126.28571416a64.28571416 64.28571416 0 0 0-64.28571416 64.28571416v64.28571416h192.79285752zM62 448.28571416a257.14285752 257.14285752 0 1 0 514.28571416 0h0.25714336v-225a96.42857168 96.42857168 0 0 1 192.85714248 0L769.33571416 512.57142832H962V641.14285752h-192.85714248l0.1285708-3.98571504A65.25 65.25 0 0 0 769.14285752 641.14285752V769.71428584a64.28571416 64.28571416 0 0 0 64.28571416 64.28571416h64.28571416a64.28571416 64.28571416 0 0 0 64.28571416-64.28571416v-64.28571416h0.25714248v-482.14285752a289.28571416 289.28571416 0 0 0-578.57142832 0V255.42857168H383.42857168V448.28571416a64.28571416 64.28571416 0 1 1-128.5714292 0l-0.06428496-257.14285664H62V448.28571416z"  horiz-adv-x="1097" />

    
    <glyph glyph-name="zuzhijiagouguanli" unicode="&#58929;" d="M909.85813333 260.92657778h-100.72746666v100.62506666c-0.04551111 37.42151111-30.36728889 67.74328889-67.7888 67.7888H536.94008889v102.24071111h101.56942222c37.42151111 0.04551111 67.74328889 30.36728889 67.7888 67.7888V764.93937778c-0.04551111 37.42151111-30.36728889 67.74328889-67.7888 67.7888H367.86631111c-37.42151111-0.04551111-67.74328889-30.36728889-67.7888-67.7888v-165.5808c0.03413333-37.42151111 30.36728889-67.74328889 67.7888-67.7888h101.28497778v-102.27484445H265.79626667c-37.42151111-0.04551111-67.74328889-30.36728889-67.7888-67.7888v-100.61368889h-101.6832c-37.42151111-0.03413333-67.74328889-30.36728889-67.7888-67.7888v-170.00675556c0.04551111-37.42151111 30.36728889-67.74328889 67.7888-67.7888h270.50666666c37.42151111 0.03413333 67.74328889 30.36728889 67.7888 67.7888V193.13777777999996c-0.04551111 37.42151111-30.36728889 67.74328889-67.7888 67.7888h-101.12568888v100.51128888l0.05688888 0.05688889H741.26222222l0.05688889-0.05688889v-100.51128888h-102.07004444c-37.42151111-0.04551111-67.74328889-30.36728889-67.7888-67.7888v-170.05226667c0.04551111-37.42151111 30.36728889-67.74328889 67.7888-67.7888h270.60906666c37.42151111 0.03413333 67.74328889 30.36728889 67.7888 67.7888V193.13777777999996c-0.04551111 37.42151111-30.36728889 67.74328889-67.7888 67.7888z m-541.99182222 338.48888888V764.87111111l0.05688889 0.05688889H638.40711111l0.05688889-0.05688889v-165.46702223l-0.05688889-0.06826666H367.91182222l-0.04551111 0.07964444z m-1.05813333-406.34595555v-169.92711111l-0.05688889-0.05688889H96.32426667l-0.05688889 0.05688889V193.06951111l0.05688889 0.05688889h270.44977778l0.03413333-0.05688889z m543.04995555-169.92711111l-0.05688888-0.05688889H639.31733333l-0.05688888 0.05688889V193.06951111l0.05688888 0.05688889h270.44977778l0.05688889-0.05688889 0.03413333-169.92711111z m0 0"  horiz-adv-x="1024" />

    
    <glyph glyph-name="buhegepinunqualified" unicode="&#58917;" d="M844.68622187 475.02222187H179.31377813C124.47288853 475.02222187 79.6444448 519.85066667 79.6444448 574.6915552V716.68622187C79.6444448 771.52711147 124.47288853 816.3555552 179.31377813 816.3555552h665.37244374C899.52711147 816.3555552 944.3555552 771.52711147 944.3555552 716.68622187v-141.99466667c0-54.84088853-44.8284448-99.66933333-99.66933333-99.66933333zM179.31377813 748.08888853C162.0195552 748.08888853 147.91111147 733.9804448 147.91111147 716.68622187v-141.99466667c0-17.29422187 14.1084448-31.40266667 31.40266666-31.40266667h665.37244374c17.29422187 0 31.40266667 14.1084448 31.40266666 31.40266667V716.68622187C876.08888853 733.9804448 861.9804448 748.08888853 844.68622187 748.08888853H179.31377813zM771.41333333-48.355555200000026H252.58666667A104.6755552 104.6755552 0 0 0 147.91111147 56.32000000000005V488.90311147A54.38577813 54.38577813 0 0 0 202.29688853 543.28888853H821.4755552a54.38577813 54.38577813 0 0 0 54.38577813-54.38577706V56.32000000000005C876.08888853-1.4791114700000207 829.2124448-48.355555200000026 771.41333333-48.355555200000026zM216.17777813 475.02222187v-418.70222187c0-20.02488853 16.384-36.40888853 36.40888854-36.40888853h518.82666666c20.02488853 0 36.40888853 16.384 36.40888854 36.40888853V475.02222187H216.17777813zM382.976 76.79999999999995c-8.64711147 0-17.52177813 3.41333333-24.12088853 10.0124448a33.90577813 33.90577813 0 0 0 0 48.24177707l265.55733333 265.55733333a33.90577813 33.90577813 0 0 0 48.24177707 0c13.42577813-13.42577813 13.42577813-35.0435552 0-48.24177707L407.09688853 86.81244479999998c-6.59911147-6.59911147-15.47377813-10.0124448-24.12088853-10.0124448zM648.53333333 76.79999999999995c-8.64711147 0-17.52177813 3.41333333-24.12088853 10.0124448L358.85511147 352.36977813a33.90577813 33.90577813 0 0 0 0 48.24177707 33.90577813 33.90577813 0 0 0 48.24177706 0l265.55733334-265.55733333c13.42577813-13.42577813 13.42577813-35.0435552 0-48.24177707-6.59911147-6.59911147-15.47377813-10.0124448-24.12088854-10.0124448z"  horiz-adv-x="1024" />

    
    <glyph glyph-name="youjijiance_1" unicode="&#58904;" d="M805.44736865 334.02631612000005a17.76315762 17.76315762 0 0 0-6.15789492 0l-376.10526357 102.31578896a23.68421016 23.68421016 0 0 0-17.52631524 23.68421104V597.15789492a23.68421016 23.68421016 0 0 0 9.23684151 18.71052627 23.68421016 23.68421016 0 0 0 20.60526357 4.02631524l376.10526357-101.36842031a23.68421016 23.68421016 0 0 0 17.52631524-23.68421104v-137.3684212a23.68421016 23.68421016 0 0 0-23.68421016-23.68421015z m-352.42105253 142.10526269l328.7368415-87.39473642v88.34210508l-328.7368415 88.57894745zM867.26315762-66H156.73684238a71.05263135 71.05263135 0 0 0-71.05263222 71.05263135V762.94736865a71.05263135 71.05263135 0 0 0 71.05263222 71.05263135h230.44736778a71.05263135 71.05263135 0 0 0 71.05263222-71.05263135v-29.60526357l429.15789405-127.18421016A71.05263135 71.05263135 0 0 0 938.31578984 538.18421016V5.052631349999956a71.05263135 71.05263135 0 0 0-71.05263222-71.05263135zM156.73684238 786.63157881a23.68421016 23.68421016 0 0 1-23.68421103-23.68421016v-757.8947373a23.68421016 23.68421016 0 0 1 23.68421103-23.68421016h710.52631523a23.68421016 23.68421016 0 0 1 23.68421104 23.68421016V538.18421016a23.68421016 23.68421016 0 0 1-17.05263222 23.68421103L427.92105254 691.89473643a23.68421016 23.68421016 0 0 0-17.05263135 23.68421103V762.94736865a23.68421016 23.68421016 0 0 1-23.68421103 23.68421016zM337.92105254 51.23684238999999a133.34210508 133.34210508 0 0 0-99.23684238 39.31578896 126.47368388 126.47368388 0 0 0-31.26315763 97.81578984c5.44736865 86.44736865 110.13157881 182.84210508 114.63157882 186.8684212a23.68421016 23.68421016 0 0 0 31.97368477 0c4.5-4.02631612 110.84210508-102.55263135 115.34210507-189.47368477a126.71052627 126.71052627 0 0 0-31.26315762-96.86842119 135.71052627 135.71052627 0 0 0-100.18421104-37.65789404z m-1e-8 273.31578896c-31.26315762-32.44736865-80.28947373-92.36842119-83.36842118-139.26315762A80.05263135 80.05263135 0 0 1 273.26315761 123.47368387999995a87.15789492 87.15789492 0 0 1 64.65789492-23.68421015 89.28947373 89.28947373 0 0 1 65.84210508 23.68421015 80.28947373 80.28947373 0 0 1 18.23684239 61.81578985c-2.36842119 45.23684238-52.10526357 106.34210508-84.07894747 139.26315762zM565.76315762 280.26315762a40.26315762 40.26315762 0 0 0-44.76315762-45.71052627 40.97368388 40.97368388 0 0 0-44.28947373 47.36842118 133.10526357 133.10526357 0 0 0 41.21052626 67.9736839 4.26315762 4.26315762 0 0 0 6.39473731 0c11.36842119-10.89473643 40.26315762-42.63157881 41.44736778-69.63157881z"  horiz-adv-x="1024" />

    


  </font>
</defs>
</svg>
